<?xml version="1.0" standalone="no"?>
<!DOCTYPE svg PUBLIC "-//W3C//DTD SVG 1.1//EN" "http://www.w3.org/Graphics/SVG/1.1/DTD/svg11.dtd" >
<svg xmlns="http://www.w3.org/2000/svg" xmlns:xlink="http://www.w3.org/1999/xlink" version="1.1">
<metadata>
Created by FontForge 20170910 at Wed May 11 14:00:09 2011
 By Jimmy Wärting
(c) 2011 Klim Type Foundry. All rights reserved.
</metadata>
<defs>
<font id="Calibre-MediumItalic" horiz-adv-x="500" >
  <font-face 
    font-family="Calibre"
    font-weight="500"
    font-style="italic"
    font-stretch="normal"
    units-per-em="1000"
    panose-1="2 11 6 3 3 2 2 13 2 3"
    ascent="650"
    descent="-350"
    x-height="444"
    cap-height="614"
    bbox="-195 -217 925 894"
    underline-thickness="30"
    underline-position="-70"
    slope="-10"
    stemh="93"
    stemv="103"
    unicode-range="U+0020-FB02"
  />
<missing-glyph horiz-adv-x="608" 
 />
    <glyph glyph-name="f_f" unicode="ff" horiz-adv-x="601" 
d="M668 648l-16 -87c-11 8 -28 12 -43 12c-43 0 -72 -22 -80 -68l-11 -61h97l-15 -83h-97l-63 -361h-98l63 361h-186l-63 -361h-98l63 361h-77l15 83h77l11 63c17 96 89 147 172 147c25 0 47 -4 64 -12l-16 -87c-11 8 -28 12 -43 12c-43 0 -72 -22 -80 -68l-10 -55h186
l12 69c17 96 89 147 172 147c25 0 47 -4 64 -12z" />
    <glyph glyph-name=".notdef" horiz-adv-x="608" 
 />
    <glyph glyph-name="space" unicode=" " horiz-adv-x="221" 
 />
    <glyph glyph-name="exclam" unicode="!" horiz-adv-x="200" 
d="M65 193l52 421h120l-102 -421h-70zM15 62c0 39 30 69 68 69s68 -30 68 -69s-30 -69 -68 -69s-68 30 -68 69z" />
    <glyph glyph-name="quotedbl" unicode="&#x22;" horiz-adv-x="305" 
d="M63 374l43 240h85l-43 -240h-85zM203 374l43 240h85l-43 -240h-85z" />
    <glyph glyph-name="numbersign" unicode="#" horiz-adv-x="621" 
d="M563 238l-15 -76h-115l-49 -162h-88l49 162h-128l-49 -162h-87l49 162h-85l16 76h92l42 138h-107l15 76h115l49 162h88l-50 -162h128l50 162h87l-49 -162h85l-16 -76h-92l-42 -138h107zM282 376l-42 -138h128l42 138h-128z" />
    <glyph glyph-name="dollar" unicode="$" horiz-adv-x="484" 
d="M13 184h98c9 -66 61 -94 121 -94c71 0 122 32 122 97c0 31 -18 52 -71 67l-94 27c-68 19 -121 59 -121 141c0 106 86 185 206 188l16 92h90l-18 -103c76 -23 117 -81 124 -157h-95c-6 47 -45 84 -111 84c-65 0 -115 -34 -115 -91c0 -32 18 -54 66 -68l96 -27
c76 -22 124 -66 124 -142c0 -112 -89 -183 -194 -193l-17 -97h-90l18 102c-88 18 -148 76 -155 174z" />
    <glyph glyph-name="percent" unicode="%" horiz-adv-x="675" 
d="M214 624c74 0 131 -58 131 -131c0 -76 -61 -146 -145 -146c-74 0 -131 58 -131 131c0 76 61 146 145 146zM204 422c34 0 66 28 66 68c0 33 -27 59 -60 59c-34 0 -66 -28 -66 -68c0 -33 27 -59 60 -59zM63 0l481 614h86l-481 -614h-86zM479 -10c-74 0 -131 58 -131 131
c0 76 61 146 145 146c74 0 131 -58 131 -131c0 -76 -61 -146 -145 -146zM489 192c-34 0 -66 -28 -66 -68c0 -33 27 -59 60 -59c34 0 66 28 66 68c0 33 -27 59 -60 59z" />
    <glyph glyph-name="ampersand" unicode="&#x26;" horiz-adv-x="576" 
d="M329 543c-54 0 -92 -37 -92 -92c0 -31 15 -56 36 -84l127 -171c17 31 30 66 38 104h92c-13 -63 -40 -124 -78 -175l94 -125h-118l-42 55c-50 -40 -109 -65 -172 -65c-122 0 -190 66 -190 170c0 86 59 152 146 186c-18 30 -30 61 -30 100c0 104 85 178 189 178
c107 0 164 -59 166 -154h-98c-2 43 -24 73 -68 73zM214 72c47 0 89 17 124 47l-119 159c-58 -13 -99 -59 -99 -118c0 -54 41 -88 94 -88z" />
    <glyph glyph-name="quoteright" unicode="&#x2019;" horiz-adv-x="193" 
d="M47 385l89 110c-27 7 -46 30 -46 62c0 39 30 67 68 67s68 -26 68 -72c0 -29 -17 -58 -36 -81l-71 -86h-72z" />
    <glyph glyph-name="parenleft" unicode="(" horiz-adv-x="318" 
d="M29 219c0 205 127 374 340 431l-19 -108c-118 -29 -221 -162 -221 -323c0 -103 52 -175 130 -195l-19 -108c-127 41 -211 144 -211 303z" />
    <glyph glyph-name="parenright" unicode=")" horiz-adv-x="318" 
d="M312 347c0 -205 -127 -374 -340 -431l19 108c118 29 221 162 221 323c0 103 -52 175 -130 195l19 108c127 -41 211 -144 211 -303z" />
    <glyph glyph-name="asterisk" unicode="*" horiz-adv-x="348" 
d="M218 345l-55 9l17 101l-95 -35l-19 52l95 35l-79 66l36 42l78 -65l17 100l55 -9l-17 -101l95 35l19 -52l-95 -35l79 -66l-36 -42l-78 65z" />
    <glyph glyph-name="plus" unicode="+" horiz-adv-x="564" 
d="M291 507h80l-30 -168h168l-14 -80h-168l-29 -167h-80l29 167h-168l14 80h168z" />
    <glyph glyph-name="comma" unicode="," horiz-adv-x="200" 
d="M-36 -113l91 113c-27 7 -46 30 -46 62c0 39 30 67 68 67s68 -26 68 -72c0 -29 -18 -58 -36 -81l-73 -89h-72z" />
    <glyph glyph-name="hyphen" unicode="-" horiz-adv-x="321" 
d="M42 217l16 91h241l-16 -91h-241z" />
    <glyph glyph-name="period" unicode="." horiz-adv-x="200" 
d="M9 62c0 39 30 69 68 69s68 -30 68 -69s-30 -69 -68 -69s-68 30 -68 69z" />
    <glyph glyph-name="slash" unicode="/" horiz-adv-x="357" 
d="M-48 -84l376 734h102l-377 -734h-101z" />
    <glyph glyph-name="zero" unicode="0" horiz-adv-x="536" 
d="M247 84c114 0 172 162 172 302c0 84 -30 144 -98 144c-114 0 -172 -162 -172 -302c0 -84 30 -144 98 -144zM247 -10c-128 0 -199 95 -199 238c0 214 117 396 273 396c128 0 199 -95 199 -238c0 -213 -117 -396 -273 -396z" />
    <glyph glyph-name="one" unicode="1" horiz-adv-x="329" 
d="M327 614l-108 -614h-101l86 489l-157 -73l18 105l201 93h61z" />
    <glyph glyph-name="two" unicode="2" horiz-adv-x="466" 
d="M0 68l239 221c59 55 128 118 128 175c0 40 -27 68 -79 68c-62 0 -99 -44 -115 -102h-108c32 114 118 194 236 194c109 0 170 -56 170 -147c0 -97 -74 -155 -163 -239l-158 -147h264l-17 -91h-408z" />
    <glyph glyph-name="three" unicode="3" horiz-adv-x="465" 
d="M199 270l15 87h37c61 0 119 32 119 105c0 42 -29 72 -80 72c-59 0 -101 -43 -115 -96h-107c28 107 117 186 232 186c112 0 169 -62 169 -152c0 -77 -50 -140 -112 -162c49 -25 71 -69 71 -120c0 -115 -97 -200 -217 -200c-130 0 -198 69 -198 174c0 6 1 20 1 20h100v-6
c0 -63 29 -99 97 -99c66 0 119 40 119 111c0 47 -36 80 -93 80h-38z" />
    <glyph glyph-name="four" unicode="4" horiz-adv-x="517" 
d="M435 614l-290 -400h158l26 144h96l-26 -144h101l-15 -86h-101l-22 -128h-96l22 128h-280l13 72l301 414h113z" />
    <glyph glyph-name="five" unicode="5" horiz-adv-x="477" 
d="M219 -10c-121 0 -194 73 -194 176c0 6 1 18 1 18h101v-7c0 -58 34 -97 96 -97c74 0 126 58 126 137c0 60 -34 99 -94 99c-44 0 -77 -22 -101 -48h-82l61 346h346l-16 -92h-260l-27 -149c22 15 56 32 103 32c104 0 168 -69 168 -179c0 -123 -88 -236 -228 -236z" />
    <glyph glyph-name="six" unicode="6" horiz-adv-x="505" 
d="M514 461h-101c-6 39 -34 74 -84 74c-92 0 -156 -95 -176 -201h2c30 40 86 68 141 68c111 0 179 -85 179 -176c0 -120 -96 -236 -229 -236c-142 0 -198 109 -198 236c0 180 101 398 283 398c103 0 170 -60 183 -163zM149 180c0 -55 31 -101 100 -101s127 61 127 137
c0 55 -31 101 -100 101s-127 -61 -127 -137z" />
    <glyph glyph-name="seven" unicode="7" horiz-adv-x="450" 
d="M478 535l-306 -535h-108l302 522h-294l16 92h404z" />
    <glyph glyph-name="eight" unicode="8" horiz-adv-x="492" 
d="M128 164c0 -55 43 -90 104 -90c66 0 123 40 123 113c0 55 -43 90 -104 90c-66 0 -123 -40 -123 -113zM228 -10c-97 0 -202 54 -202 164c0 96 73 161 143 172c-42 20 -72 61 -72 119c0 109 93 179 204 179c102 0 186 -56 186 -153c0 -84 -58 -141 -121 -159
c50 -20 89 -65 89 -130c0 -130 -115 -192 -227 -192zM385 464c0 46 -38 77 -84 77c-57 0 -105 -37 -105 -102c0 -46 38 -77 84 -77c57 0 105 37 105 102z" />
    <glyph glyph-name="nine" unicode="9" horiz-adv-x="505" 
d="M23 153h101c6 -39 34 -74 84 -74c92 0 156 95 176 201h-2c-30 -40 -86 -68 -141 -68c-111 0 -179 85 -179 176c0 120 96 236 229 236c142 0 198 -109 198 -236c0 -180 -101 -398 -283 -398c-103 0 -170 60 -183 163zM388 434c0 55 -31 101 -100 101s-127 -61 -127 -137
c0 -55 31 -101 100 -101s127 61 127 137z" />
    <glyph glyph-name="colon" unicode=":" horiz-adv-x="200" 
d="M9 62c0 39 30 69 68 69s68 -30 68 -69s-30 -69 -68 -69s-68 30 -68 69zM61 362c0 39 30 69 68 69s68 -30 68 -69s-30 -69 -68 -69s-68 30 -68 69z" />
    <glyph glyph-name="semicolon" unicode=";" horiz-adv-x="200" 
d="M-36 -113l91 113c-27 7 -46 30 -46 62c0 39 30 67 68 67s68 -26 68 -72c0 -29 -18 -58 -36 -81l-73 -89h-72zM61 362c0 39 30 69 68 69s68 -30 68 -69s-30 -69 -68 -69s-68 30 -68 69z" />
    <glyph glyph-name="less" unicode="&#x3c;" horiz-adv-x="446" 
d="M68 244l18 107l343 152l-16 -95l-263 -114l223 -113l-16 -90z" />
    <glyph glyph-name="equal" unicode="=" horiz-adv-x="578" 
d="M75 188l13 74h415l-13 -74h-415zM101 336l13 76h415l-13 -76h-415z" />
    <glyph glyph-name="greater" unicode="&#x3e;" horiz-adv-x="446" 
d="M403 350l-18 -107l-343 -152l16 95l263 114l-223 113l16 90z" />
    <glyph glyph-name="question" unicode="?" horiz-adv-x="441" 
d="M277 532c-65 0 -107 -44 -122 -102h-104c32 114 116 194 233 194c110 0 169 -57 169 -152c0 -81 -64 -140 -128 -193c-50 -42 -60 -65 -63 -86h-98c12 55 32 88 84 136c39 37 101 79 101 138c0 38 -27 65 -72 65zM130 62c0 39 30 69 68 69s68 -30 68 -69s-30 -69 -68 -69
s-68 30 -68 69z" />
    <glyph glyph-name="at" unicode="@" horiz-adv-x="774" 
d="M586 382l-53 -231c-7 -31 0 -50 32 -50c63 0 114 71 114 186c0 133 -103 212 -246 212c-185 0 -320 -135 -320 -333c0 -191 159 -249 287 -249c97 0 171 21 236 49l-13 -75c-51 -25 -132 -45 -223 -45c-190 0 -367 96 -367 320c0 221 165 405 400 405
c196 0 323 -120 323 -284c0 -172 -108 -254 -211 -254c-47 0 -87 20 -106 54c-19 -33 -62 -54 -98 -54c-78 0 -127 59 -127 137c0 116 83 222 194 222c41 0 71 -18 83 -37l8 27h87zM445 160l27 111c-7 23 -30 41 -62 41c-62 0 -104 -66 -104 -133c0 -38 21 -65 61 -65
c35 0 61 22 78 46z" />
    <glyph glyph-name="A" unicode="A" horiz-adv-x="612" 
d="M333 614h100l124 -614h-104l-32 170h-235l-94 -170h-107zM361 487l-126 -227h169z" />
    <glyph glyph-name="B" unicode="B" horiz-adv-x="551" 
d="M431 314c49 -17 77 -62 77 -119c0 -128 -108 -195 -240 -195h-235l108 614h215c116 0 180 -53 180 -145c0 -78 -49 -136 -105 -155zM196 356h113c77 0 125 31 125 99c0 48 -30 69 -95 69h-113zM181 270l-32 -180h132c77 0 125 42 125 105c0 47 -30 75 -93 75h-132z" />
    <glyph glyph-name="C" unicode="C" horiz-adv-x="600" 
d="M49 268c0 178 118 356 309 356c135 0 219 -80 231 -203h-103c-14 64 -55 109 -128 109c-133 0 -204 -126 -204 -262c0 -107 58 -184 154 -184c82 0 127 41 157 110h103c-34 -124 -129 -204 -260 -204c-152 0 -259 111 -259 278z" />
    <glyph glyph-name="D" unicode="D" horiz-adv-x="610" 
d="M153 93h102c149 0 232 111 232 261c0 105 -53 168 -166 168h-92zM33 0l108 614h193c169 0 258 -96 258 -260c0 -194 -132 -354 -349 -354h-210z" />
    <glyph glyph-name="E" unicode="E" horiz-adv-x="514" 
d="M141 614h401l-16 -92h-299l-29 -162h271l-16 -91h-271l-31 -176h299l-16 -93h-401z" />
    <glyph glyph-name="F" unicode="F" horiz-adv-x="495" 
d="M137 0h-104l108 614h392l-16 -92h-288l-33 -182h269l-16 -91h-269z" />
    <glyph glyph-name="G" unicode="G" horiz-adv-x="622" 
d="M315 -10c-159 0 -266 111 -266 278c0 178 119 356 311 356c139 0 229 -79 241 -202h-101c-16 64 -62 108 -140 108c-134 0 -206 -126 -206 -262c0 -107 58 -185 161 -185c86 0 161 65 175 145h-132l16 89h229l-13 -76c-25 -145 -131 -251 -275 -251z" />
    <glyph glyph-name="H" unicode="H" horiz-adv-x="653" 
d="M554 614h104l-108 -614h-104l47 269h-309l-47 -269h-104l108 614h104l-45 -253h309z" />
    <glyph glyph-name="I" unicode="I" horiz-adv-x="240" 
d="M245 614l-108 -614h-104l108 614h104z" />
    <glyph glyph-name="J" unicode="J" horiz-adv-x="496" 
d="M26 188h106v-8c0 -57 25 -95 89 -95c67 0 104 52 119 136l69 393h104l-71 -407c-23 -129 -103 -217 -221 -217c-124 0 -196 71 -196 177c0 7 1 21 1 21z" />
    <glyph glyph-name="K" unicode="K" horiz-adv-x="582" 
d="M245 614l-52 -294l307 294h134l-299 -281l200 -333h-119l-161 267l-85 -77l-33 -190h-104l108 614h104z" />
    <glyph glyph-name="L" unicode="L" horiz-adv-x="505" 
d="M33 0l108 614h104l-92 -521h295l-16 -93h-399z" />
    <glyph glyph-name="M" unicode="M" horiz-adv-x="744" 
d="M376 0h-74l-95 427l-75 -427h-99l108 614h114l106 -480l268 480h120l-108 -614h-100l75 427z" />
    <glyph glyph-name="N" unicode="N" horiz-adv-x="630" 
d="M635 614l-108 -614h-80l-234 460l-80 -460h-100l108 614h98l219 -439l77 439h100z" />
    <glyph glyph-name="O" unicode="O" horiz-adv-x="637" 
d="M307 83c117 0 207 107 207 263c0 103 -57 185 -153 185c-117 0 -207 -107 -207 -263c0 -103 57 -185 153 -185zM307 -10c-157 0 -258 114 -258 278c0 203 140 356 312 356c157 0 258 -114 258 -278c0 -203 -140 -356 -312 -356z" />
    <glyph glyph-name="P" unicode="P" horiz-adv-x="545" 
d="M310 229h-133l-40 -229h-104l108 614h237c111 0 178 -58 178 -167c0 -140 -109 -218 -246 -218zM229 524l-36 -205h131c80 0 128 48 128 122c0 49 -28 83 -92 83h-131z" />
    <glyph glyph-name="Q" unicode="Q" horiz-adv-x="637" 
d="M307 -10c-157 0 -258 114 -258 278c0 203 140 356 312 356c157 0 258 -114 258 -278c0 -118 -48 -219 -121 -283l39 -63l-72 -47l-39 63c-37 -17 -77 -26 -119 -26zM307 83c25 0 49 4 70 13l-39 65l73 46l37 -62c42 47 66 117 66 201c0 103 -57 185 -153 185
c-117 0 -207 -107 -207 -263c0 -103 57 -185 153 -185z" />
    <glyph glyph-name="R" unicode="R" horiz-adv-x="555" 
d="M261 249h-81l-43 -249h-104l108 614h225c124 0 187 -57 187 -162c0 -113 -76 -182 -186 -199l133 -253h-112zM229 524l-33 -188h129c76 0 124 39 124 113c0 45 -30 75 -92 75h-128z" />
    <glyph glyph-name="S" unicode="S" horiz-adv-x="519" 
d="M517 447h-101c-6 49 -48 89 -118 89c-68 0 -118 -35 -118 -95c0 -34 16 -58 66 -72l101 -29c79 -23 129 -68 129 -147c0 -127 -107 -203 -229 -203c-127 0 -220 63 -230 187h102c10 -68 65 -99 128 -99c74 0 128 35 128 103c0 33 -19 56 -75 72l-98 28
c-71 20 -123 61 -123 146c0 113 91 197 219 197c136 0 211 -71 219 -177z" />
    <glyph glyph-name="T" unicode="T" horiz-adv-x="572" 
d="M83 522l16 92h512l-16 -92h-204l-92 -522h-104l92 522h-204z" />
    <glyph glyph-name="U" unicode="U" horiz-adv-x="608" 
d="M285 -10c-134 0 -224 68 -224 199c0 18 2 38 8 71l62 354h104l-63 -358c-3 -19 -5 -36 -5 -52c0 -77 38 -121 118 -121c95 0 150 55 171 173l63 358h104l-65 -370c-29 -164 -128 -254 -273 -254z" />
    <glyph glyph-name="V" unicode="V" horiz-adv-x="603" 
d="M305 0h-100l-112 614h105l79 -479l269 479h111z" />
    <glyph glyph-name="W" unicode="W" horiz-adv-x="780" 
d="M421 614h84l27 -452l200 452h102l-279 -614h-96l-31 439l-203 -439h-95l-37 614h100l22 -452z" />
    <glyph glyph-name="X" unicode="X" horiz-adv-x="573" 
d="M633 614l-273 -305l157 -309h-109l-118 235l-208 -235h-118l284 317l-150 297h109l111 -223l197 223h118z" />
    <glyph glyph-name="Y" unicode="Y" horiz-adv-x="578" 
d="M311 339l211 275h114l-288 -369l-43 -245h-103l43 245l-157 369h109z" />
    <glyph glyph-name="Z" unicode="Z" horiz-adv-x="549" 
d="M486 93l-16 -93h-459l12 73l401 449h-313l16 92h449l-13 -72l-399 -449h322z" />
    <glyph glyph-name="bracketleft" unicode="[" horiz-adv-x="315" 
d="M220 560l-97 -554h133l-16 -90h-227l129 734h227l-16 -90h-133z" />
    <glyph glyph-name="backslash" unicode="\" horiz-adv-x="357" 
d="M196 650l119 -734h-95l-119 734h95z" />
    <glyph glyph-name="bracketright" unicode="]" horiz-adv-x="315" 
d="M121 6l97 554h-133l16 90h227l-129 -734h-227l16 90h133z" />
    <glyph glyph-name="asciicircum" unicode="^" horiz-adv-x="391" 
d="M212 614h102l97 -206h-96l-61 126l-107 -126h-107z" />
    <glyph glyph-name="underscore" unicode="_" horiz-adv-x="381" 
d="M-34 -129l14 87h341l-15 -87h-340z" />
    <glyph glyph-name="quoteleft" unicode="&#x2018;" horiz-adv-x="193" 
d="M246 614l-89 -110c27 -7 46 -30 46 -62c0 -39 -30 -67 -68 -67s-68 26 -68 72c0 29 17 58 36 81l71 86h72z" />
    <glyph glyph-name="a" unicode="a" horiz-adv-x="464" 
d="M421 291l-51 -291h-96l4 25c-18 -15 -57 -33 -107 -33c-82 0 -151 46 -151 128c0 97 95 160 199 160c42 0 81 -12 99 -27l7 36c1 7 2 14 2 21c0 34 -20 59 -68 59c-43 0 -70 -19 -88 -48h-97c27 76 102 133 197 133c96 0 153 -55 153 -133c0 -10 -1 -20 -3 -30zM294 118
l7 37c-6 28 -42 45 -82 45c-48 0 -104 -22 -104 -74c0 -37 40 -53 81 -53c40 0 82 17 98 45z" />
    <glyph glyph-name="b" unicode="b" horiz-adv-x="514" 
d="M132 39l-7 -39h-100l114 650h100l-44 -250c25 29 71 54 120 54c111 0 168 -84 168 -195c0 -151 -102 -269 -239 -269c-57 0 -96 24 -112 49zM177 298l-28 -160c11 -35 44 -59 91 -59c89 0 143 77 143 180c0 61 -34 106 -93 106c-52 0 -89 -32 -113 -67z" />
    <glyph glyph-name="c" unicode="c" horiz-adv-x="451" 
d="M316 139h99c-24 -93 -99 -149 -200 -149c-110 0 -184 78 -184 199c0 134 93 265 235 265c104 0 164 -58 169 -149h-99c-5 39 -31 62 -72 62c-89 0 -132 -91 -132 -178c0 -68 33 -112 91 -112c45 0 78 23 93 62z" />
    <glyph glyph-name="d" unicode="d" horiz-adv-x="514" 
d="M382 405l43 245h100l-114 -650h-100l8 44c-25 -29 -71 -54 -120 -54c-111 0 -168 84 -168 195c0 141 102 269 239 269c57 0 96 -24 112 -49zM337 146l28 160c-11 35 -44 59 -91 59c-89 0 -143 -90 -143 -180c0 -61 34 -106 93 -106c52 0 89 32 113 67z" />
    <glyph glyph-name="e" unicode="e" horiz-adv-x="469" 
d="M327 138h100c-25 -88 -100 -148 -205 -148c-120 0 -191 80 -191 198c0 132 92 266 240 266c112 0 172 -71 172 -179c0 -20 -4 -50 -9 -76h-305v-11c0 -70 33 -114 99 -114c44 0 82 21 99 64zM267 370c-63 0 -104 -43 -124 -98h203c1 6 1 9 1 13c0 47 -29 85 -80 85z" />
    <glyph glyph-name="f" unicode="f" horiz-adv-x="317" 
d="M384 648l-16 -87c-11 8 -28 12 -43 12c-43 0 -72 -22 -80 -68l-11 -61h97l-15 -83h-97l-63 -361h-98l63 361h-77l15 83h77l12 69c17 96 89 147 172 147c25 0 47 -4 64 -12z" />
    <glyph glyph-name="g" unicode="g" horiz-adv-x="512" 
d="M316 29l5 28c-26 -31 -72 -53 -121 -53c-111 0 -168 82 -168 191c0 138 101 259 238 259c57 0 96 -24 112 -48l7 38h100l-74 -419c-23 -132 -108 -205 -231 -205c-110 0 -184 62 -184 156h97c2 -49 37 -74 88 -74c77 0 117 47 131 127zM339 157l27 152
c-10 32 -45 57 -92 57c-89 0 -142 -83 -142 -171c0 -60 34 -103 93 -103c52 0 90 31 114 65z" />
    <glyph glyph-name="h" unicode="h" horiz-adv-x="495" 
d="M324 454c85 0 131 -56 131 -131c0 -11 -1 -22 -3 -34l-50 -289h-100l47 272c2 11 3 19 3 27c0 39 -21 64 -70 64c-43 0 -87 -30 -106 -72l-51 -291h-100l114 650h100l-44 -250c26 29 71 54 129 54z" />
    <glyph glyph-name="i" unicode="i" horiz-adv-x="225" 
d="M203 444l-78 -444h-100l78 444h100zM239 578c0 -34 -29 -61 -62 -61s-62 27 -62 61s29 61 62 61s62 -27 62 -61z" />
    <glyph glyph-name="j" unicode="j" horiz-adv-x="224" 
d="M-99 -164l15 87c12 -10 30 -18 50 -18c32 0 45 20 53 62l84 477h100l-86 -484c-15 -88 -67 -140 -149 -140c-30 0 -52 7 -67 16zM239 578c0 -34 -29 -61 -62 -61s-62 27 -62 61s29 61 62 61s62 -27 62 -61z" />
    <glyph glyph-name="k" unicode="k" horiz-adv-x="477" 
d="M322 0l-121 191l-50 -43l-26 -148h-100l114 650h100l-68 -387l201 181h133l-227 -195l156 -249h-112z" />
    <glyph glyph-name="l" unicode="l" horiz-adv-x="224" 
d="M239 650l-114 -650h-100l114 650h100z" />
    <glyph glyph-name="m" unicode="m" horiz-adv-x="722" 
d="M420 394c30 34 78 60 132 60c89 0 130 -59 130 -130c0 -11 -1 -23 -3 -35l-50 -289h-100l46 266c3 16 4 26 4 35c0 38 -17 62 -58 62c-39 0 -74 -30 -93 -72l-51 -291h-100l46 266c3 16 4 26 4 35c0 38 -17 62 -58 62c-39 0 -74 -30 -93 -72l-51 -291h-100l78 444h100
l-8 -44c26 29 63 54 118 54c50 0 91 -29 107 -60z" />
    <glyph glyph-name="n" unicode="n" horiz-adv-x="495" 
d="M25 0l78 444h100l-8 -44c26 29 71 54 129 54c85 0 131 -56 131 -131c0 -11 -1 -22 -3 -34l-50 -289h-100l47 272c2 11 3 19 3 27c0 39 -21 64 -70 64c-43 0 -87 -30 -106 -72l-51 -291h-100z" />
    <glyph glyph-name="o" unicode="o" horiz-adv-x="485" 
d="M223 76c77 0 131 78 131 182c0 65 -33 110 -92 110c-77 0 -131 -78 -131 -182c0 -65 33 -110 92 -110zM222 -10c-122 0 -191 81 -191 196c0 154 105 268 232 268c122 0 191 -81 191 -196c0 -154 -105 -268 -232 -268z" />
    <glyph glyph-name="p" unicode="p" horiz-adv-x="514" 
d="M132 39l-37 -209h-100l108 614h100l-8 -44c25 29 71 54 120 54c111 0 168 -84 168 -195c0 -151 -102 -269 -239 -269c-57 0 -96 24 -112 49zM177 298l-28 -160c11 -35 44 -59 91 -59c89 0 143 77 143 180c0 61 -34 106 -93 106c-52 0 -89 -32 -113 -67z" />
    <glyph glyph-name="q" unicode="q" horiz-adv-x="510" 
d="M382 405l7 39h100l-108 -614h-100l38 214c-25 -29 -71 -54 -120 -54c-111 0 -168 84 -168 195c0 141 102 269 239 269c57 0 96 -24 112 -49zM337 146l28 160c-11 35 -44 59 -91 59c-89 0 -143 -90 -143 -180c0 -61 34 -106 93 -106c52 0 89 32 113 67z" />
    <glyph glyph-name="r" unicode="r" horiz-adv-x="340" 
d="M351 446l-18 -103c-13 10 -35 15 -56 15c-41 0 -83 -23 -102 -71l-50 -287h-100l78 444h100l-8 -46c22 33 66 56 109 56c22 0 41 -4 47 -8z" />
    <glyph glyph-name="s" unicode="s" horiz-adv-x="429" 
d="M14 131h98c7 -44 45 -59 85 -59c48 0 82 18 82 54c0 23 -11 35 -43 44l-79 22c-59 16 -99 47 -99 115c0 83 75 147 174 147c111 0 164 -57 171 -134h-95c-6 29 -29 52 -76 52c-44 0 -76 -20 -76 -53c0 -19 10 -31 36 -39l81 -24c71 -21 103 -58 103 -115
c0 -95 -81 -151 -180 -151c-112 0 -175 60 -182 141z" />
    <glyph glyph-name="t" unicode="t" horiz-adv-x="333" 
d="M69 120l45 241h-72l15 83h72l22 119h100l-22 -119h98l-15 -83h-98l-42 -224c-1 -7 -2 -12 -2 -21c0 -26 16 -37 44 -37c20 0 45 8 61 18l-16 -91c-19 -10 -47 -16 -78 -16c-69 0 -115 33 -115 100c0 9 1 19 3 30z" />
    <glyph glyph-name="u" unicode="u" horiz-adv-x="492" 
d="M469 444l-78 -444h-100l8 42c-26 -26 -71 -52 -129 -52c-84 0 -129 55 -129 130c0 11 1 23 3 35l50 289h100l-48 -277c-2 -10 -3 -20 -3 -29c0 -38 19 -62 67 -62c44 0 89 34 108 76l51 292h100z" />
    <glyph glyph-name="v" unicode="v" horiz-adv-x="476" 
d="M231 0h-103l-70 444h98l47 -325l187 325h108z" />
    <glyph glyph-name="w" unicode="w" horiz-adv-x="650" 
d="M406 444l12 -315l152 315h102l-225 -444h-100l-14 309l-144 -309h-100l-33 444h95l20 -315l148 315h87z" />
    <glyph glyph-name="x" unicode="x" horiz-adv-x="465" 
d="M486 444l-199 -217l120 -227h-104l-82 158l-143 -158h-112l214 232l-112 212h104l74 -144l128 144h112z" />
    <glyph glyph-name="y" unicode="y" horiz-adv-x="476" 
d="M129 -170h-100l99 170l-70 444h98l49 -325l185 325h108z" />
    <glyph glyph-name="z" unicode="z" horiz-adv-x="446" 
d="M378 83l-14 -83h-360l11 63l280 298h-218l15 83h346l-11 -63l-280 -298h231z" />
    <glyph glyph-name="braceleft" unicode="{" horiz-adv-x="344" 
d="M192 200l-29 -165c-3 -19 5 -29 24 -29h98l-16 -90h-96c-81 0 -119 53 -106 130l28 162c3 19 -5 29 -24 29h-50l17 92h50c19 0 31 10 34 29l28 162c14 77 76 130 152 130h96l-16 -90h-98c-19 0 -31 -10 -34 -29l-29 -165c-8 -43 -33 -67 -62 -83c24 -16 41 -40 33 -83z
" />
    <glyph glyph-name="bar" unicode="|" horiz-adv-x="232" 
d="M18 -84l129 734h96l-129 -734h-96z" />
    <glyph glyph-name="braceright" unicode="}" horiz-adv-x="344" 
d="M178 366l29 165c3 19 -5 29 -24 29h-98l16 90h96c81 0 119 -53 106 -130l-28 -162c-3 -19 5 -29 24 -29h50l-17 -92h-50c-19 0 -31 -10 -34 -29l-28 -162c-14 -77 -76 -130 -152 -130h-96l16 90h98c19 0 31 10 34 29l29 165c8 43 33 67 62 83c-24 16 -41 40 -33 83z" />
    <glyph glyph-name="asciitilde" unicode="~" horiz-adv-x="429" 
d="M333 341h80c-17 -92 -65 -144 -129 -144c-61 0 -81 62 -118 62c-24 0 -40 -19 -47 -58h-80c16 90 63 143 128 143c60 0 80 -61 118 -61c23 0 41 19 48 58z" />
    <glyph glyph-name="exclamdown" unicode="&#xa1;" horiz-adv-x="210" 
d="M166 325l-52 -421h-120l102 421h70zM216 456c0 -39 -30 -69 -68 -69s-68 30 -68 69s30 69 68 69s68 -30 68 -69z" />
    <glyph glyph-name="cent" unicode="&#xa2;" horiz-adv-x="451" 
d="M32 199c0 126 82 249 211 263l16 90h90l-18 -97c67 -20 103 -73 105 -147h-98c-2 43 -29 69 -73 69c-89 0 -132 -91 -132 -178c0 -68 33 -112 91 -112c48 0 82 26 96 69h98c-20 -86 -81 -142 -166 -154l-16 -91h-90l16 96c-80 21 -130 92 -130 192z" />
    <glyph glyph-name="sterling" unicode="&#xa3;" horiz-adv-x="492" 
d="M246 426l-15 -83h139l-14 -81h-140l-15 -88c-6 -35 -18 -71 -37 -91h284l-14 -83h-438l14 83h57c17 23 28 47 36 91l15 88h-76l14 81h77l15 83c19 109 88 198 204 198c114 0 164 -68 164 -156h-95c0 47 -27 70 -69 70c-61 0 -95 -48 -106 -112z" />
    <glyph glyph-name="fraction" unicode="&#x2044;" horiz-adv-x="216" 
d="M439 614l-545 -614h-89l545 614h89z" />
    <glyph glyph-name="yen" unicode="&#xa5;" horiz-adv-x="552" 
d="M55 125l13 77h159l11 63h-159l14 77h113l-110 272h104l99 -263l194 263h111l-208 -272h114l-14 -77h-159l-11 -63h159l-13 -77h-160l-21 -125h-99l21 125h-158z" />
    <glyph glyph-name="florin" unicode="&#x192;" horiz-adv-x="424" 
d="M74 267l15 84h85l38 126c29 96 99 147 183 147c34 0 55 -5 71 -12l-16 -88c-16 9 -33 14 -55 14c-40 0 -68 -19 -83 -68l-36 -119h88l-15 -84h-98l-90 -300c-29 -96 -89 -147 -173 -147c-34 0 -55 5 -71 12l16 88c16 -9 33 -14 55 -14c40 0 58 19 73 68l88 293h-75z" />
    <glyph glyph-name="section" unicode="&#xa7;" horiz-adv-x="465" 
d="M301 280l-123 92c-26 -7 -56 -30 -56 -62c0 -28 24 -46 51 -66l123 -92c26 7 56 30 56 62c0 28 -24 46 -51 66zM349 90c4 -10 5 -22 5 -35c0 -94 -87 -155 -179 -155c-111 0 -164 59 -164 143h96c0 -35 21 -63 73 -63c42 0 79 21 79 62c0 23 -16 36 -46 58l-96 70
c-45 33 -83 70 -83 126c0 59 35 110 91 138c-4 10 -5 22 -5 35c0 94 87 155 179 155c111 0 164 -59 164 -143h-96c0 35 -21 63 -73 63c-42 0 -79 -21 -79 -62c0 -23 16 -36 46 -58l96 -70c45 -33 83 -70 83 -126c0 -59 -35 -110 -91 -138z" />
    <glyph glyph-name="quotesingle" unicode="'" horiz-adv-x="169" 
d="M63 374l43 240h89l-43 -240h-89z" />
    <glyph glyph-name="quotedblleft" unicode="&#x201c;" horiz-adv-x="374" 
d="M246 614l-89 -110c27 -7 46 -30 46 -62c0 -39 -30 -67 -68 -67s-68 26 -68 72c0 29 17 58 36 81l71 86h72zM427 614l-89 -110c27 -7 46 -30 46 -62c0 -39 -30 -67 -68 -67s-68 26 -68 72c0 29 17 58 36 81l71 86h72z" />
    <glyph glyph-name="guillemotleft" unicode="&#xab;" horiz-adv-x="397" 
d="M175 64h-89l-64 158l120 158h95l-124 -163zM340 64h-89l-64 158l120 158h95l-124 -163z" />
    <glyph glyph-name="guilsinglleft" unicode="&#x2039;" horiz-adv-x="236" 
d="M180 64h-94l-64 158l120 158h100l-124 -163z" />
    <glyph glyph-name="guilsinglright" unicode="&#x203a;" horiz-adv-x="236" 
d="M69 380h94l64 -158l-120 -158h-100l124 163z" />
    <glyph glyph-name="fi" unicode="&#xfb01;" horiz-adv-x="541" 
d="M520 444l-78 -444h-100l78 444h100zM556 578c0 -34 -29 -61 -62 -61s-62 27 -62 61s29 61 62 61s62 -27 62 -61zM384 648l-16 -87c-11 8 -28 12 -43 12c-43 0 -72 -22 -80 -68l-11 -61h97l-15 -83h-97l-63 -361h-98l63 361h-77l15 83h77l12 69c17 96 89 147 172 147
c25 0 47 -4 64 -12z" />
    <glyph glyph-name="fl" unicode="&#xfb02;" horiz-adv-x="541" 
d="M556 650l-114 -650h-100l114 650h100zM384 648l-16 -87c-11 8 -28 12 -43 12c-43 0 -72 -22 -80 -68l-11 -61h97l-15 -83h-97l-63 -361h-98l63 361h-77l15 83h77l12 69c17 96 89 147 172 147c25 0 47 -4 64 -12z" />
    <glyph glyph-name="endash" unicode="&#x2013;" horiz-adv-x="475" 
d="M42 223l14 79h395l-14 -79h-395z" />
    <glyph glyph-name="dagger" unicode="&#x2020;" horiz-adv-x="332" 
d="M76 486l13 72h98l17 92h74l-17 -92h100l-13 -72h-99l-37 -210h-74l37 210h-99z" />
    <glyph glyph-name="daggerdbl" unicode="&#x2021;" horiz-adv-x="345" 
d="M81 502l12 68h100l14 80h74l-14 -80h101l-12 -68h-101l-14 -79h101l-12 -67h-101l-14 -80h-74l14 80h-100l12 67h100l14 79h-100z" />
    <glyph glyph-name="periodcentered" unicode="&#xb7;" horiz-adv-x="200" 
d="M36 263c0 39 30 69 68 69s68 -30 68 -69s-30 -69 -68 -69s-68 30 -68 69z" />
    <glyph glyph-name="paragraph" unicode="&#xb6;" horiz-adv-x="528" 
d="M328 -90l124 704h81l-124 -704h-81zM176 -90l63 357c-94 0 -188 48 -188 148c0 144 141 199 262 199h68l-124 -704h-81z" />
    <glyph glyph-name="bullet" unicode="&#x2022;" horiz-adv-x="352" 
d="M327 262c0 -84 -64 -143 -144 -143s-144 59 -144 143c0 85 64 144 144 144s144 -59 144 -144z" />
    <glyph glyph-name="quotesinglbase" unicode="&#x201a;" horiz-adv-x="193" 
d="M-33 -108l89 110c-27 7 -46 30 -46 62c0 39 30 67 68 67s68 -26 68 -72c0 -29 -17 -58 -36 -81l-71 -86h-72z" />
    <glyph glyph-name="quotedblbase" unicode="&#x201e;" horiz-adv-x="374" 
d="M-33 -108l89 110c-27 7 -46 30 -46 62c0 39 30 67 68 67s68 -26 68 -72c0 -29 -17 -58 -36 -81l-71 -86h-72zM148 -108l89 110c-27 7 -46 30 -46 62c0 39 30 67 68 67s68 -26 68 -72c0 -29 -17 -58 -36 -81l-71 -86h-72z" />
    <glyph glyph-name="quotedblright" unicode="&#x201d;" horiz-adv-x="374" 
d="M47 385l89 110c-27 7 -46 30 -46 62c0 39 30 67 68 67s68 -26 68 -72c0 -29 -17 -58 -36 -81l-71 -86h-72zM228 385l89 110c-27 7 -46 30 -46 62c0 39 30 67 68 67s68 -26 68 -72c0 -29 -17 -58 -36 -81l-71 -86h-72z" />
    <glyph glyph-name="guillemotright" unicode="&#xbb;" horiz-adv-x="397" 
d="M235 380h89l64 -158l-120 -158h-95l124 163zM70 380h89l64 -158l-120 -158h-95l124 163z" />
    <glyph glyph-name="ellipsis" unicode="&#x2026;" horiz-adv-x="640" 
d="M9 62c0 39 30 69 68 69s68 -30 68 -69s-30 -69 -68 -69s-68 30 -68 69zM229 62c0 39 30 69 68 69s68 -30 68 -69s-30 -69 -68 -69s-68 30 -68 69zM449 62c0 39 30 69 68 69s68 -30 68 -69s-30 -69 -68 -69s-68 30 -68 69z" />
    <glyph glyph-name="perthousand" unicode="&#x2030;" horiz-adv-x="970" 
d="M214 624c74 0 131 -58 131 -131c0 -76 -61 -146 -145 -146c-74 0 -131 58 -131 131c0 76 61 146 145 146zM204 422c34 0 66 28 66 68c0 33 -27 59 -60 59c-34 0 -66 -28 -66 -68c0 -33 27 -59 60 -59zM63 0l481 614h86l-481 -614h-86zM479 -10c-74 0 -131 58 -131 131
c0 76 61 146 145 146c74 0 131 -58 131 -131c0 -76 -61 -146 -145 -146zM489 192c-34 0 -66 -28 -66 -68c0 -33 27 -59 60 -59c34 0 66 28 66 68c0 33 -27 59 -60 59zM780 -10c-74 0 -131 58 -131 131c0 76 61 146 145 146c74 0 131 -58 131 -131c0 -76 -61 -146 -145 -146z
M790 192c-34 0 -66 -28 -66 -68c0 -33 27 -59 60 -59c34 0 66 28 66 68c0 33 -27 59 -60 59z" />
    <glyph glyph-name="questiondown" unicode="&#xbf;" horiz-adv-x="441" 
d="M184 -14c65 0 107 44 122 102h104c-32 -114 -116 -194 -233 -194c-110 0 -169 57 -169 152c0 81 64 140 128 193c50 42 60 65 63 86h98c-12 -55 -32 -88 -84 -136c-39 -37 -101 -79 -101 -138c0 -38 27 -65 72 -65zM331 456c0 -39 -30 -69 -68 -69s-68 30 -68 69
s30 69 68 69s68 -30 68 -69z" />
    <glyph glyph-name="grave" unicode="`" 
d="M328 513h-83l-67 137h97z" />
    <glyph glyph-name="acute" unicode="&#xb4;" 
d="M239 513h-91l101 137h105z" />
    <glyph glyph-name="circumflex" unicode="&#x2c6;" 
d="M320 646l70 -140h-81l-42 79l-70 -79h-87l118 140h92z" />
    <glyph glyph-name="tilde" unicode="&#x2dc;" 
d="M335 641h64c-13 -78 -51 -131 -106 -131c-43 0 -59 52 -88 52c-21 0 -34 -18 -40 -49h-64c14 78 51 131 106 131c44 0 60 -52 88 -52c20 0 34 18 40 49z" />
    <glyph glyph-name="macron" unicode="&#xaf;" 
d="M130 524l14 79h225l-14 -79h-225z" />
    <glyph glyph-name="breve" unicode="&#x2d8;" 
d="M233 495c-71 0 -122 48 -106 135h73c-7 -38 4 -65 40 -65s57 27 64 65h73c-16 -87 -69 -135 -144 -135z" />
    <glyph glyph-name="dotaccent" unicode="&#x2d9;" 
d="M312 578c0 -34 -29 -61 -62 -61s-62 27 -62 61s29 61 62 61s62 -27 62 -61z" />
    <glyph glyph-name="dieresis" unicode="&#xa8;" 
d="M114 572c0 34 26 59 59 59c32 0 58 -25 58 -59c0 -32 -26 -58 -58 -58c-33 0 -59 26 -59 58zM268 572c0 34 26 59 58 59s59 -25 59 -59c0 -32 -27 -58 -59 -58s-58 26 -58 58z" />
    <glyph glyph-name="ring" unicode="&#x2da;" 
d="M247 538c23 0 44 17 44 44c0 23 -18 40 -40 40c-23 0 -44 -17 -44 -44c0 -23 18 -40 40 -40zM245 489c-51 0 -89 37 -89 87c0 51 42 95 97 95c51 0 89 -37 89 -87c0 -51 -42 -95 -97 -95z" />
    <glyph glyph-name="cedilla" unicode="&#xb8;" 
d="M246 -190h-98l96 137h103z" />
    <glyph glyph-name="hungarumlaut" unicode="&#x2dd;" 
d="M181 513h-82l84 137h84zM315 513h-82l84 137h84z" />
    <glyph glyph-name="ogonek" unicode="&#x2db;" 
d="M254 5h71c-41 -54 -70 -80 -70 -107c0 -11 6 -18 17 -18c12 0 22 5 40 16l-11 -64c-18 -12 -39 -22 -63 -22c-44 0 -63 25 -63 57c0 53 42 93 79 138z" />
    <glyph glyph-name="caron" unicode="&#x2c7;" 
d="M180 506l-70 140h81l42 -79l70 79h87l-118 -140h-92z" />
    <glyph glyph-name="emdash" unicode="&#x2014;" horiz-adv-x="846" 
d="M42 223l14 79h766l-14 -79h-766z" />
    <glyph glyph-name="AE" unicode="&#xc6;" horiz-adv-x="872" 
d="M443 614h457l-16 -92h-289l-29 -162h261l-16 -91h-261l-31 -176h289l-16 -93h-391l30 170h-208l-127 -170h-111zM496 536l-206 -276h157z" />
    <glyph glyph-name="ordfeminine" unicode="&#xaa;" horiz-adv-x="325" 
d="M338 508l-33 -187h-85l2 16c-11 -10 -37 -21 -68 -21c-55 0 -100 32 -100 86c0 66 61 105 128 105c29 0 55 -8 67 -17l4 21c1 3 1 7 1 11c0 18 -10 32 -36 32c-24 0 -39 -11 -48 -27h-82c18 56 69 98 141 98c70 0 111 -37 111 -94c0 -8 -1 -15 -2 -23zM234 402l3 21
c-4 14 -22 24 -45 24c-24 0 -53 -12 -53 -39c0 -20 21 -29 43 -29c21 0 42 9 52 23z" />
    <glyph glyph-name="Lslash" unicode="&#x141;" horiz-adv-x="519" 
d="M27 204l18 98l59 25l51 287h104l-44 -249l141 59l-18 -98l-140 -59l-31 -174h295l-16 -93h-399l40 229z" />
    <glyph glyph-name="Oslash" unicode="&#xd8;" horiz-adv-x="647" 
d="M55 27l52 61c-34 47 -53 109 -53 180c0 203 140 356 312 356c61 0 113 -17 154 -48l44 52l58 -41l-52 -61c35 -47 54 -109 54 -180c0 -203 -140 -356 -312 -356c-61 0 -113 17 -155 47l-43 -51zM312 83c117 0 207 107 207 263c0 35 -7 68 -20 96l-277 -328
c24 -20 54 -31 90 -31zM159 268c0 -35 6 -68 19 -96l277 328c-24 19 -54 31 -89 31c-117 0 -207 -107 -207 -263z" />
    <glyph glyph-name="OE" unicode="&#x152;" horiz-adv-x="827" 
d="M855 614l-16 -92h-289l-29 -162h261l-16 -91h-261l-31 -176h289l-16 -93h-440c-169 0 -258 96 -258 260c0 194 132 354 349 354h457zM154 260c0 -105 53 -168 166 -168h52l75 429h-61c-149 0 -232 -111 -232 -261z" />
    <glyph glyph-name="ordmasculine" unicode="&#xba;" horiz-adv-x="339" 
d="M200 390c42 0 70 44 70 102c0 34 -17 58 -47 58c-42 0 -70 -45 -70 -103c0 -33 16 -57 47 -57zM198 314c-82 0 -135 53 -135 134c0 104 73 177 162 177c82 0 135 -53 135 -133c0 -104 -73 -178 -162 -178z" />
    <glyph glyph-name="ae" unicode="&#xe6;" horiz-adv-x="739" 
d="M597 138h100c-25 -88 -100 -148 -205 -148c-70 0 -124 25 -152 73c-45 -49 -112 -71 -177 -71c-82 0 -143 44 -143 124c0 93 93 157 202 157h100c3 22 3 28 3 34c0 36 -17 62 -67 62c-43 0 -70 -19 -88 -48h-97c27 76 102 133 197 133c62 0 105 -20 130 -66
c31 38 86 66 141 66c112 0 172 -71 172 -179c0 -20 -4 -52 -9 -78h-305v-11c0 -70 33 -112 99 -112c45 0 82 21 99 64zM297 135l11 62h-92c-48 0 -101 -17 -101 -72c0 -36 33 -52 71 -52c48 0 88 23 111 62zM537 370c-62 0 -103 -43 -123 -97h202c1 5 1 10 1 14
c0 47 -29 83 -80 83z" />
    <glyph glyph-name="dotlessi" unicode="&#x131;" horiz-adv-x="225" 
d="M203 444l-78 -444h-100l78 444h100z" />
    <glyph glyph-name="lslash" unicode="&#x142;" horiz-adv-x="260" 
d="M257 650l-40 -228l68 32l-15 -85l-68 -32l-59 -337h-100l52 295l-61 -28l15 85l61 28l47 270h100z" />
    <glyph glyph-name="oslash" unicode="&#xf8;" horiz-adv-x="495" 
d="M26 -2l49 59c-26 34 -39 78 -39 129c0 154 105 268 232 268c43 0 80 -11 109 -29l45 54l48 -36l-49 -59c25 -33 38 -76 38 -126c0 -154 -105 -268 -232 -268c-43 0 -79 10 -108 27l-45 -55zM131 186c0 -19 2 -36 8 -51l181 220c-14 9 -32 15 -53 15
c-77 0 -136 -80 -136 -184zM228 74c77 0 136 80 136 184c0 17 -3 33 -7 48l-180 -219c14 -9 31 -13 51 -13z" />
    <glyph glyph-name="oe" unicode="&#x153;" horiz-adv-x="780" 
d="M638 138h100c-25 -88 -100 -148 -205 -148c-69 0 -121 30 -153 77c-39 -46 -97 -77 -158 -77c-122 0 -191 81 -191 196c0 154 105 268 232 268c70 0 122 -29 152 -77c41 46 99 77 167 77c112 0 172 -71 172 -179c0 -20 -4 -50 -9 -76h-305v-11c0 -70 33 -114 99 -114
c44 0 82 21 99 64zM223 76c77 0 131 78 131 182c0 65 -33 110 -92 110c-77 0 -131 -78 -131 -182c0 -65 33 -110 92 -110zM578 370c-63 0 -104 -43 -124 -98h203c1 6 1 9 1 13c0 47 -29 85 -80 85z" />
    <glyph glyph-name="germandbls" unicode="&#xdf;" horiz-adv-x="518" 
d="M398 365c54 -19 87 -72 87 -146c0 -141 -111 -224 -229 -224c-35 0 -58 3 -82 11l15 89c14 -6 39 -11 67 -11c77 0 135 51 135 135c0 61 -39 97 -118 97h-40l15 86h40c61 0 110 34 110 101c0 42 -26 72 -76 72c-69 0 -107 -51 -118 -115l-81 -460h-98l80 459
c21 123 110 201 224 201c107 0 165 -59 165 -141c0 -79 -48 -135 -96 -154z" />
    <glyph glyph-name="onesuperior" unicode="&#xb9;" horiz-adv-x="243" 
d="M254 614l-59 -335h-81l42 241l-83 -38l14 82l112 50h55z" />
    <glyph glyph-name="trademark" unicode="&#x2122;" horiz-adv-x="597" 
d="M75 557l10 57h223l-10 -57h-78l-35 -197h-67l35 197h-78zM460 360h-44l-28 150l-26 -150h-63l45 254h81l29 -159l86 159h82l-45 -254h-63l26 150z" />
    <glyph glyph-name="Eth" unicode="&#xd0;" horiz-adv-x="624" 
d="M40 273l15 88h55l45 253h193c169 0 258 -96 258 -260c0 -194 -132 -354 -349 -354h-210l48 273h-55zM167 93h102c149 0 232 111 232 261c0 105 -53 168 -166 168h-92l-29 -161h116l-15 -88h-116z" />
    <glyph glyph-name="onehalf" unicode="&#xbd;" horiz-adv-x="709" 
d="M664 614l-545 -614h-89l545 614h89zM269 614l-59 -335h-77l42 241l-97 -44l15 82l125 56h51zM383 55l136 118c21 18 51 44 51 68c0 17 -11 27 -29 27c-22 0 -40 -19 -45 -39h-84c17 63 66 111 137 111c65 0 103 -34 103 -87c0 -51 -38 -85 -82 -123l-71 -61h124l-12 -69
h-237z" />
    <glyph glyph-name="plusminus" unicode="&#xb1;" horiz-adv-x="570" 
d="M301 539h79l-24 -132h164l-14 -79h-164l-23 -132h-79l23 132h-164l14 79h164zM54 73l14 79h407l-14 -79h-407z" />
    <glyph glyph-name="Thorn" unicode="&#xde;" horiz-adv-x="545" 
d="M291 123h-133l-21 -123h-104l108 614h103l-18 -106h133c111 0 178 -58 178 -167c0 -140 -109 -218 -246 -218zM210 418l-36 -205h131c80 0 128 48 128 122c0 49 -28 83 -92 83h-131z" />
    <glyph glyph-name="onequarter" unicode="&#xbc;" horiz-adv-x="689" 
d="M664 614l-545 -614h-89l545 614h89zM269 614l-59 -335h-77l42 241l-97 -44l15 82l125 56h51zM579 335l-133 -204h59l10 59h71l-10 -59h48l-12 -68h-48l-11 -63h-71l11 63h-147l10 61l143 211h80z" />
    <glyph glyph-name="divide" unicode="&#xf7;" horiz-adv-x="564" 
d="M79 259l14 80h416l-14 -80h-416zM262 467c0 35 28 64 63 64s64 -29 64 -64s-29 -63 -64 -63s-63 28 -63 63zM202 131c0 35 28 63 63 63s64 -28 64 -63s-29 -64 -64 -64s-63 29 -63 64z" />
    <glyph glyph-name="degree" unicode="&#xb0;" horiz-adv-x="354" 
d="M225 624c69 0 121 -53 121 -122c0 -79 -66 -144 -143 -144c-69 0 -121 53 -121 122c0 79 66 144 143 144zM219 554c-33 0 -67 -29 -67 -70c0 -31 25 -56 57 -56c33 0 67 29 67 70c0 31 -25 56 -57 56z" />
    <glyph glyph-name="thorn" unicode="&#xfe;" horiz-adv-x="514" 
d="M132 39l-37 -209h-100l144 820h100l-44 -250c25 29 71 54 120 54c111 0 168 -84 168 -195c0 -151 -102 -269 -239 -269c-57 0 -96 24 -112 49zM177 298l-28 -160c11 -35 44 -59 91 -59c89 0 143 77 143 180c0 61 -34 106 -93 106c-52 0 -89 -32 -113 -67z" />
    <glyph glyph-name="threequarters" unicode="&#xbe;" horiz-adv-x="726" 
d="M701 614l-545 -614h-89l545 614h89zM174 418l11 61h19c27 0 51 12 51 42c0 16 -11 29 -31 29c-24 0 -40 -18 -46 -40h-84c16 63 66 109 137 109c66 0 102 -37 102 -89c0 -40 -26 -72 -53 -83c22 -14 33 -37 33 -63c0 -64 -55 -110 -125 -110c-74 0 -119 41 -119 102
c0 4 1 9 1 9h82v-3c0 -24 12 -39 38 -39c25 0 46 16 46 42c0 21 -15 33 -40 33h-22zM616 335l-133 -204h59l10 59h71l-10 -59h48l-12 -68h-48l-11 -63h-71l11 63h-147l10 61l143 211h80z" />
    <glyph glyph-name="twosuperior" unicode="&#xb2;" horiz-adv-x="308" 
d="M50 334l136 118c21 18 47 41 47 65c0 17 -10 27 -28 27c-22 0 -35 -16 -40 -36h-86c17 63 66 111 137 111c65 0 103 -34 103 -87c0 -54 -36 -85 -80 -123l-67 -59h118l-12 -71h-237z" />
    <glyph glyph-name="registered" unicode="&#xae;" horiz-adv-x="407" 
d="M418 441c0 -106 -82 -183 -181 -183s-181 77 -181 183s82 183 181 183s181 -77 181 -183zM385 441c0 89 -66 152 -148 152s-148 -63 -148 -152s66 -152 148 -152s148 63 148 152zM234 409h-21v-63h-50v192h89c43 0 70 -24 70 -66c0 -30 -14 -50 -38 -58l45 -68h-55z
M274 472c0 14 -9 24 -26 24h-35v-47h35c17 0 26 10 26 23z" />
    <glyph glyph-name="minus" unicode="&#x2212;" horiz-adv-x="564" 
d="M79 259l14 80h416l-14 -80h-416z" />
    <glyph glyph-name="eth" unicode="&#xf0;" horiz-adv-x="485" 
d="M207 490l-20 57l74 24c-22 26 -48 52 -75 75v4h114c18 -15 35 -31 50 -49l84 28l19 -57l-68 -23c47 -80 69 -177 69 -258c0 -187 -105 -301 -232 -301c-122 0 -191 81 -191 196c0 154 105 268 224 268c38 0 69 -12 89 -32h4c-6 26 -23 61 -49 99zM223 76
c77 0 131 78 131 182c0 65 -33 110 -92 110c-77 0 -131 -78 -131 -182c0 -65 33 -110 92 -110z" />
    <glyph glyph-name="multiply" unicode="&#xd7;" horiz-adv-x="496" 
d="M208 298l-102 121l61 52l99 -122l146 124l45 -55l-145 -123l101 -121l-61 -53l-101 122l-144 -123l-45 56z" />
    <glyph glyph-name="copyright" unicode="&#xa9;" horiz-adv-x="704" 
d="M686 307c0 -184 -143 -317 -317 -317s-317 133 -317 317s143 317 317 317s317 -133 317 -317zM639 307c0 157 -122 271 -270 271s-270 -114 -270 -271s122 -271 270 -271s270 114 270 271zM187 309c0 117 76 199 185 199c97 0 152 -57 166 -136h-98c-10 31 -33 47 -68 47
c-55 0 -88 -47 -88 -110s33 -110 88 -110c35 0 58 16 68 47h98c-14 -79 -70 -136 -166 -136c-109 0 -185 82 -185 199z" />
    <glyph glyph-name="Aacute" unicode="&#xc1;" horiz-adv-x="612" 
d="M333 614h100l124 -614h-104l-32 170h-235l-94 -170h-107zM361 487l-126 -227h169zM436 671h-102l97 117h120z" />
    <glyph glyph-name="Acircumflex" unicode="&#xc2;" horiz-adv-x="612" 
d="M333 614h100l124 -614h-104l-32 170h-235l-94 -170h-107zM454 795l72 -124h-85l-41 60l-61 -60h-93l116 124h92zM361 487l-126 -227h169z" />
    <glyph glyph-name="Adieresis" unicode="&#xc4;" horiz-adv-x="612" 
d="M333 614h100l124 -614h-104l-32 170h-235l-94 -170h-107zM361 487l-126 -227h169zM264 728c0 34 26 59 59 59c32 0 58 -25 58 -59c0 -32 -26 -58 -58 -58c-33 0 -59 26 -59 58zM418 728c0 34 26 59 58 59s59 -25 59 -59c0 -32 -27 -58 -59 -58s-58 26 -58 58z" />
    <glyph glyph-name="Agrave" unicode="&#xc0;" horiz-adv-x="612" 
d="M333 614h100l124 -614h-104l-32 170h-235l-94 -170h-107zM361 487l-126 -227h169zM439 671h-92l-75 117h110z" />
    <glyph glyph-name="Aring" unicode="&#xc5;" horiz-adv-x="612" 
d="M333 614h100l124 -614h-104l-32 170h-235l-94 -170h-107zM400 649c-51 0 -89 37 -89 87c0 51 42 95 97 95c51 0 89 -37 89 -87c0 -51 -42 -95 -97 -95zM361 487l-126 -227h169zM402 698c23 0 44 17 44 44c0 23 -18 40 -40 40c-23 0 -44 -17 -44 -44c0 -23 18 -40 40 -40z
" />
    <glyph glyph-name="Atilde" unicode="&#xc3;" horiz-adv-x="612" 
d="M333 614h100l124 -614h-104l-32 170h-235l-94 -170h-107zM486 799h64c-13 -78 -51 -131 -106 -131c-43 0 -59 52 -88 52c-21 0 -34 -18 -40 -49h-64c14 78 51 131 106 131c44 0 60 -52 88 -52c20 0 34 18 40 49zM361 487l-126 -227h169z" />
    <glyph glyph-name="Ccedilla" unicode="&#xc7;" horiz-adv-x="600" 
d="M49 268c0 178 118 356 309 356c135 0 219 -80 231 -203h-103c-14 64 -55 109 -128 109c-133 0 -204 -126 -204 -262c0 -107 58 -184 154 -184c82 0 127 41 157 110h103c-34 -124 -129 -204 -260 -204c-152 0 -259 111 -259 278zM209 -190h-98l96 137h103z" />
    <glyph glyph-name="Eacute" unicode="&#xc9;" horiz-adv-x="514" 
d="M395 671h-102l97 117h120zM141 614h401l-16 -92h-299l-29 -162h271l-16 -91h-271l-31 -176h299l-16 -93h-401z" />
    <glyph glyph-name="Ecircumflex" unicode="&#xca;" horiz-adv-x="514" 
d="M141 614h401l-16 -92h-299l-29 -162h271l-16 -91h-271l-31 -176h299l-16 -93h-401zM416 795l72 -124h-85l-41 60l-61 -60h-93l116 124h92z" />
    <glyph glyph-name="Edieresis" unicode="&#xcb;" horiz-adv-x="514" 
d="M226 728c0 34 26 59 59 59c32 0 58 -25 58 -59c0 -32 -26 -58 -58 -58c-33 0 -59 26 -59 58zM380 728c0 34 26 59 58 59s59 -25 59 -59c0 -32 -27 -58 -59 -58s-58 26 -58 58zM141 614h401l-16 -92h-299l-29 -162h271l-16 -91h-271l-31 -176h299l-16 -93h-401z" />
    <glyph glyph-name="Egrave" unicode="&#xc8;" horiz-adv-x="514" 
d="M398 671h-92l-75 117h110zM141 614h401l-16 -92h-299l-29 -162h271l-16 -91h-271l-31 -176h299l-16 -93h-401z" />
    <glyph glyph-name="Iacute" unicode="&#xcd;" horiz-adv-x="240" 
d="M245 614l-108 -614h-104l108 614h104zM247 671h-102l97 117h120z" />
    <glyph glyph-name="Icircumflex" unicode="&#xce;" horiz-adv-x="240" 
d="M245 614l-108 -614h-104l108 614h104zM268 795l72 -124h-85l-41 60l-61 -60h-93l116 124h92z" />
    <glyph glyph-name="Idieresis" unicode="&#xcf;" horiz-adv-x="240" 
d="M245 614l-108 -614h-104l108 614h104zM78 728c0 34 26 59 59 59c32 0 58 -25 58 -59c0 -32 -26 -58 -58 -58c-33 0 -59 26 -59 58zM232 728c0 34 26 59 58 59s59 -25 59 -59c0 -32 -27 -58 -59 -58s-58 26 -58 58z" />
    <glyph glyph-name="Igrave" unicode="&#xcc;" horiz-adv-x="240" 
d="M245 614l-108 -614h-104l108 614h104zM250 671h-92l-75 117h110z" />
    <glyph glyph-name="Ntilde" unicode="&#xd1;" horiz-adv-x="630" 
d="M495 799h64c-13 -78 -51 -131 -106 -131c-43 0 -59 52 -88 52c-21 0 -34 -18 -40 -49h-64c14 78 51 131 106 131c44 0 60 -52 88 -52c20 0 34 18 40 49zM635 614l-108 -614h-80l-234 460l-80 -460h-100l108 614h98l219 -439l77 439h100z" />
    <glyph glyph-name="Oacute" unicode="&#xd3;" horiz-adv-x="637" 
d="M438 671h-102l97 117h120zM307 83c117 0 207 107 207 263c0 103 -57 185 -153 185c-117 0 -207 -107 -207 -263c0 -103 57 -185 153 -185zM307 -10c-157 0 -258 114 -258 278c0 203 140 356 312 356c157 0 258 -114 258 -278c0 -203 -140 -356 -312 -356z" />
    <glyph glyph-name="Ocircumflex" unicode="&#xd4;" horiz-adv-x="637" 
d="M307 83c117 0 207 107 207 263c0 103 -57 185 -153 185c-117 0 -207 -107 -207 -263c0 -103 57 -185 153 -185zM307 -10c-157 0 -258 114 -258 278c0 203 140 356 312 356c157 0 258 -114 258 -278c0 -203 -140 -356 -312 -356zM459 795l72 -124h-85l-41 60l-61 -60h-93
l116 124h92z" />
    <glyph glyph-name="Odieresis" unicode="&#xd6;" horiz-adv-x="637" 
d="M269 728c0 34 26 59 59 59c32 0 58 -25 58 -59c0 -32 -26 -58 -58 -58c-33 0 -59 26 -59 58zM423 728c0 34 26 59 58 59s59 -25 59 -59c0 -32 -27 -58 -59 -58s-58 26 -58 58zM307 83c117 0 207 107 207 263c0 103 -57 185 -153 185c-117 0 -207 -107 -207 -263
c0 -103 57 -185 153 -185zM307 -10c-157 0 -258 114 -258 278c0 203 140 356 312 356c157 0 258 -114 258 -278c0 -203 -140 -356 -312 -356z" />
    <glyph glyph-name="Ograve" unicode="&#xd2;" horiz-adv-x="637" 
d="M441 671h-92l-75 117h110zM307 83c117 0 207 107 207 263c0 103 -57 185 -153 185c-117 0 -207 -107 -207 -263c0 -103 57 -185 153 -185zM307 -10c-157 0 -258 114 -258 278c0 203 140 356 312 356c157 0 258 -114 258 -278c0 -203 -140 -356 -312 -356z" />
    <glyph glyph-name="Otilde" unicode="&#xd5;" horiz-adv-x="637" 
d="M491 799h64c-13 -78 -51 -131 -106 -131c-43 0 -59 52 -88 52c-21 0 -34 -18 -40 -49h-64c14 78 51 131 106 131c44 0 60 -52 88 -52c20 0 34 18 40 49zM307 83c117 0 207 107 207 263c0 103 -57 185 -153 185c-117 0 -207 -107 -207 -263c0 -103 57 -185 153 -185z
M307 -10c-157 0 -258 114 -258 278c0 203 140 356 312 356c157 0 258 -114 258 -278c0 -203 -140 -356 -312 -356z" />
    <glyph glyph-name="Scaron" unicode="&#x160;" horiz-adv-x="519" 
d="M283 671l-72 124h85l41 -60l61 60h93l-116 -124h-92zM517 447h-101c-6 49 -48 89 -118 89c-68 0 -118 -35 -118 -95c0 -34 16 -58 66 -72l101 -29c79 -23 129 -68 129 -147c0 -127 -107 -203 -229 -203c-127 0 -220 63 -230 187h102c10 -68 65 -99 128 -99
c74 0 128 35 128 103c0 33 -19 56 -75 72l-98 28c-71 20 -123 61 -123 146c0 113 91 197 219 197c136 0 211 -71 219 -177z" />
    <glyph glyph-name="Uacute" unicode="&#xda;" horiz-adv-x="608" 
d="M425 671h-102l97 117h120zM285 -10c-134 0 -224 68 -224 199c0 18 2 38 8 71l62 354h104l-63 -358c-3 -19 -5 -36 -5 -52c0 -77 38 -121 118 -121c95 0 150 55 171 173l63 358h104l-65 -370c-29 -164 -128 -254 -273 -254z" />
    <glyph glyph-name="Ucircumflex" unicode="&#xdb;" horiz-adv-x="608" 
d="M285 -10c-134 0 -224 68 -224 199c0 18 2 38 8 71l62 354h104l-63 -358c-3 -19 -5 -36 -5 -52c0 -77 38 -121 118 -121c95 0 150 55 171 173l63 358h104l-65 -370c-29 -164 -128 -254 -273 -254zM446 795l72 -124h-85l-41 60l-61 -60h-93l116 124h92z" />
    <glyph glyph-name="Udieresis" unicode="&#xdc;" horiz-adv-x="608" 
d="M256 728c0 34 26 59 59 59c32 0 58 -25 58 -59c0 -32 -26 -58 -58 -58c-33 0 -59 26 -59 58zM410 728c0 34 26 59 58 59s59 -25 59 -59c0 -32 -27 -58 -59 -58s-58 26 -58 58zM285 -10c-134 0 -224 68 -224 199c0 18 2 38 8 71l62 354h104l-63 -358c-3 -19 -5 -36 -5 -52
c0 -77 38 -121 118 -121c95 0 150 55 171 173l63 358h104l-65 -370c-29 -164 -128 -254 -273 -254z" />
    <glyph glyph-name="Ugrave" unicode="&#xd9;" horiz-adv-x="608" 
d="M428 671h-92l-75 117h110zM285 -10c-134 0 -224 68 -224 199c0 18 2 38 8 71l62 354h104l-63 -358c-3 -19 -5 -36 -5 -52c0 -77 38 -121 118 -121c95 0 150 55 171 173l63 358h104l-65 -370c-29 -164 -128 -254 -273 -254z" />
    <glyph glyph-name="Yacute" unicode="&#xdd;" horiz-adv-x="578" 
d="M311 339l211 275h114l-288 -369l-43 -245h-103l43 245l-157 369h109zM415 671h-102l97 117h120z" />
    <glyph glyph-name="Ydieresis" unicode="&#x178;" horiz-adv-x="578" 
d="M311 339l211 275h114l-288 -369l-43 -245h-103l43 245l-157 369h109zM246 728c0 34 26 59 59 59c32 0 58 -25 58 -59c0 -32 -26 -58 -58 -58c-33 0 -59 26 -59 58zM400 728c0 34 26 59 58 59s59 -25 59 -59c0 -32 -27 -58 -59 -58s-58 26 -58 58z" />
    <glyph glyph-name="Zcaron" unicode="&#x17d;" horiz-adv-x="549" 
d="M310 671l-72 124h85l41 -60l61 60h93l-116 -124h-92zM486 93l-16 -93h-459l12 73l401 449h-313l16 92h449l-13 -72l-399 -449h322z" />
    <glyph glyph-name="aacute" unicode="&#xe1;" horiz-adv-x="464" 
d="M421 291l-51 -291h-96l4 25c-18 -15 -57 -33 -107 -33c-82 0 -151 46 -151 128c0 97 95 160 199 160c42 0 81 -12 99 -27l7 36c1 7 2 14 2 21c0 34 -20 59 -68 59c-43 0 -70 -19 -88 -48h-97c27 76 102 133 197 133c96 0 153 -55 153 -133c0 -10 -1 -20 -3 -30zM294 118
l7 37c-6 28 -42 45 -82 45c-48 0 -104 -22 -104 -74c0 -37 40 -53 81 -53c40 0 82 17 98 45zM334 513h-91l101 137h105z" />
    <glyph glyph-name="acircumflex" unicode="&#xe2;" horiz-adv-x="464" 
d="M361 646l70 -140h-81l-42 79l-70 -79h-87l118 140h92zM421 291l-51 -291h-96l4 25c-18 -15 -57 -33 -107 -33c-82 0 -151 46 -151 128c0 97 95 160 199 160c42 0 81 -12 99 -27l7 36c1 7 2 14 2 21c0 34 -20 59 -68 59c-43 0 -70 -19 -88 -48h-97c27 76 102 133 197 133
c96 0 153 -55 153 -133c0 -10 -1 -20 -3 -30zM294 118l7 37c-6 28 -42 45 -82 45c-48 0 -104 -22 -104 -74c0 -37 40 -53 81 -53c40 0 82 17 98 45z" />
    <glyph glyph-name="adieresis" unicode="&#xe4;" horiz-adv-x="464" 
d="M171 572c0 34 26 59 59 59c32 0 58 -25 58 -59c0 -32 -26 -58 -58 -58c-33 0 -59 26 -59 58zM325 572c0 34 26 59 58 59s59 -25 59 -59c0 -32 -27 -58 -59 -58s-58 26 -58 58zM421 291l-51 -291h-96l4 25c-18 -15 -57 -33 -107 -33c-82 0 -151 46 -151 128
c0 97 95 160 199 160c42 0 81 -12 99 -27l7 36c1 7 2 14 2 21c0 34 -20 59 -68 59c-43 0 -70 -19 -88 -48h-97c27 76 102 133 197 133c96 0 153 -55 153 -133c0 -10 -1 -20 -3 -30zM294 118l7 37c-6 28 -42 45 -82 45c-48 0 -104 -22 -104 -74c0 -37 40 -53 81 -53
c40 0 82 17 98 45z" />
    <glyph glyph-name="agrave" unicode="&#xe0;" horiz-adv-x="464" 
d="M421 291l-51 -291h-96l4 25c-18 -15 -57 -33 -107 -33c-82 0 -151 46 -151 128c0 97 95 160 199 160c42 0 81 -12 99 -27l7 36c1 7 2 14 2 21c0 34 -20 59 -68 59c-43 0 -70 -19 -88 -48h-97c27 76 102 133 197 133c96 0 153 -55 153 -133c0 -10 -1 -20 -3 -30zM294 118
l7 37c-6 28 -42 45 -82 45c-48 0 -104 -22 -104 -74c0 -37 40 -53 81 -53c40 0 82 17 98 45zM334 513h-83l-67 137h97z" />
    <glyph glyph-name="aring" unicode="&#xe5;" horiz-adv-x="464" 
d="M421 291l-51 -291h-96l4 25c-18 -15 -57 -33 -107 -33c-82 0 -151 46 -151 128c0 97 95 160 199 160c42 0 81 -12 99 -27l7 36c1 7 2 14 2 21c0 34 -20 59 -68 59c-43 0 -70 -19 -88 -48h-97c27 76 102 133 197 133c96 0 153 -55 153 -133c0 -10 -1 -20 -3 -30zM294 118
l7 37c-6 28 -42 45 -82 45c-48 0 -104 -22 -104 -74c0 -37 40 -53 81 -53c40 0 82 17 98 45zM305 538c23 0 44 17 44 44c0 23 -18 40 -40 40c-23 0 -44 -17 -44 -44c0 -23 18 -40 40 -40zM303 489c-51 0 -89 37 -89 87c0 51 42 95 97 95c51 0 89 -37 89 -87
c0 -51 -42 -95 -97 -95z" />
    <glyph glyph-name="atilde" unicode="&#xe3;" horiz-adv-x="464" 
d="M421 291l-51 -291h-96l4 25c-18 -15 -57 -33 -107 -33c-82 0 -151 46 -151 128c0 97 95 160 199 160c42 0 81 -12 99 -27l7 36c1 7 2 14 2 21c0 34 -20 59 -68 59c-43 0 -70 -19 -88 -48h-97c27 76 102 133 197 133c96 0 153 -55 153 -133c0 -10 -1 -20 -3 -30zM294 118
l7 37c-6 28 -42 45 -82 45c-48 0 -104 -22 -104 -74c0 -37 40 -53 81 -53c40 0 82 17 98 45zM392 641h64c-13 -78 -51 -131 -106 -131c-43 0 -59 52 -88 52c-21 0 -34 -18 -40 -49h-64c14 78 51 131 106 131c44 0 60 -52 88 -52c20 0 34 18 40 49z" />
    <glyph glyph-name="ccedilla" unicode="&#xe7;" horiz-adv-x="451" 
d="M316 139h99c-24 -93 -99 -149 -200 -149c-110 0 -184 78 -184 199c0 134 93 265 235 265c104 0 164 -58 169 -149h-99c-5 39 -31 62 -72 62c-89 0 -132 -91 -132 -178c0 -68 33 -112 91 -112c45 0 78 23 93 62zM147 -190h-98l96 137h103z" />
    <glyph glyph-name="eacute" unicode="&#xe9;" horiz-adv-x="469" 
d="M327 138h100c-25 -88 -100 -148 -205 -148c-120 0 -191 80 -191 198c0 132 92 266 240 266c112 0 172 -71 172 -179c0 -20 -4 -50 -9 -76h-305v-11c0 -70 33 -114 99 -114c44 0 82 21 99 64zM267 370c-63 0 -104 -43 -124 -98h203c1 6 1 9 1 13c0 47 -29 85 -80 85z
M329 513h-91l101 137h105z" />
    <glyph glyph-name="ecircumflex" unicode="&#xea;" horiz-adv-x="469" 
d="M327 138h100c-25 -88 -100 -148 -205 -148c-120 0 -191 80 -191 198c0 132 92 266 240 266c112 0 172 -71 172 -179c0 -20 -4 -50 -9 -76h-305v-11c0 -70 33 -114 99 -114c44 0 82 21 99 64zM356 646l70 -140h-81l-42 79l-70 -79h-87l118 140h92zM267 370
c-63 0 -104 -43 -124 -98h203c1 6 1 9 1 13c0 47 -29 85 -80 85z" />
    <glyph glyph-name="edieresis" unicode="&#xeb;" horiz-adv-x="469" 
d="M327 138h100c-25 -88 -100 -148 -205 -148c-120 0 -191 80 -191 198c0 132 92 266 240 266c112 0 172 -71 172 -179c0 -20 -4 -50 -9 -76h-305v-11c0 -70 33 -114 99 -114c44 0 82 21 99 64zM267 370c-63 0 -104 -43 -124 -98h203c1 6 1 9 1 13c0 47 -29 85 -80 85z
M167 572c0 34 26 59 59 59c32 0 58 -25 58 -59c0 -32 -26 -58 -58 -58c-33 0 -59 26 -59 58zM321 572c0 34 26 59 58 59s59 -25 59 -59c0 -32 -27 -58 -59 -58s-58 26 -58 58z" />
    <glyph glyph-name="egrave" unicode="&#xe8;" horiz-adv-x="469" 
d="M327 138h100c-25 -88 -100 -148 -205 -148c-120 0 -191 80 -191 198c0 132 92 266 240 266c112 0 172 -71 172 -179c0 -20 -4 -50 -9 -76h-305v-11c0 -70 33 -114 99 -114c44 0 82 21 99 64zM267 370c-63 0 -104 -43 -124 -98h203c1 6 1 9 1 13c0 47 -29 85 -80 85z
M330 513h-83l-67 137h97z" />
    <glyph glyph-name="iacute" unicode="&#xed;" horiz-adv-x="225" 
d="M204 513h-91l101 137h105zM203 444l-78 -444h-100l78 444h100z" />
    <glyph glyph-name="icircumflex" unicode="&#xee;" horiz-adv-x="225" 
d="M233 646l52 -140h-80l-27 76l-53 -76h-84l100 140h92zM203 444l-78 -444h-100l78 444h100z" />
    <glyph glyph-name="idieresis" unicode="&#xef;" horiz-adv-x="225" 
d="M49 572c0 34 26 59 59 59c32 0 58 -25 58 -59c0 -32 -26 -58 -58 -58c-33 0 -59 26 -59 58zM189 572c0 34 26 59 58 59s59 -25 59 -59c0 -32 -27 -58 -59 -58s-58 26 -58 58zM203 444l-78 -444h-100l78 444h100z" />
    <glyph glyph-name="igrave" unicode="&#xec;" horiz-adv-x="225" 
d="M203 444l-78 -444h-100l78 444h100zM205 513h-83l-67 137h97z" />
    <glyph glyph-name="ntilde" unicode="&#xf1;" horiz-adv-x="495" 
d="M25 0l78 444h100l-8 -44c26 29 71 54 129 54c85 0 131 -56 131 -131c0 -11 -1 -22 -3 -34l-50 -289h-100l47 272c2 11 3 19 3 27c0 39 -21 64 -70 64c-43 0 -87 -30 -106 -72l-51 -291h-100zM404 641h64c-13 -78 -51 -131 -106 -131c-43 0 -59 52 -88 52
c-21 0 -34 -18 -40 -49h-64c14 78 51 131 106 131c44 0 60 -52 88 -52c20 0 34 18 40 49z" />
    <glyph glyph-name="oacute" unicode="&#xf3;" horiz-adv-x="485" 
d="M329 513h-91l101 137h105zM223 76c77 0 131 78 131 182c0 65 -33 110 -92 110c-77 0 -131 -78 -131 -182c0 -65 33 -110 92 -110zM222 -10c-122 0 -191 81 -191 196c0 154 105 268 232 268c122 0 191 -81 191 -196c0 -154 -105 -268 -232 -268z" />
    <glyph glyph-name="ocircumflex" unicode="&#xf4;" horiz-adv-x="485" 
d="M356 646l70 -140h-81l-42 79l-70 -79h-87l118 140h92zM223 76c77 0 131 78 131 182c0 65 -33 110 -92 110c-77 0 -131 -78 -131 -182c0 -65 33 -110 92 -110zM222 -10c-122 0 -191 81 -191 196c0 154 105 268 232 268c122 0 191 -81 191 -196c0 -154 -105 -268 -232 -268
z" />
    <glyph glyph-name="odieresis" unicode="&#xf6;" horiz-adv-x="485" 
d="M166 572c0 34 26 59 59 59c32 0 58 -25 58 -59c0 -32 -26 -58 -58 -58c-33 0 -59 26 -59 58zM320 572c0 34 26 59 58 59s59 -25 59 -59c0 -32 -27 -58 -59 -58s-58 26 -58 58zM223 76c77 0 131 78 131 182c0 65 -33 110 -92 110c-77 0 -131 -78 -131 -182
c0 -65 33 -110 92 -110zM222 -10c-122 0 -191 81 -191 196c0 154 105 268 232 268c122 0 191 -81 191 -196c0 -154 -105 -268 -232 -268z" />
    <glyph glyph-name="ograve" unicode="&#xf2;" horiz-adv-x="485" 
d="M223 76c77 0 131 78 131 182c0 65 -33 110 -92 110c-77 0 -131 -78 -131 -182c0 -65 33 -110 92 -110zM222 -10c-122 0 -191 81 -191 196c0 154 105 268 232 268c122 0 191 -81 191 -196c0 -154 -105 -268 -232 -268zM329 513h-83l-67 137h97z" />
    <glyph glyph-name="otilde" unicode="&#xf5;" horiz-adv-x="485" 
d="M223 76c77 0 131 78 131 182c0 65 -33 110 -92 110c-77 0 -131 -78 -131 -182c0 -65 33 -110 92 -110zM222 -10c-122 0 -191 81 -191 196c0 154 105 268 232 268c122 0 191 -81 191 -196c0 -154 -105 -268 -232 -268zM387 641h64c-13 -78 -51 -131 -106 -131
c-43 0 -59 52 -88 52c-21 0 -34 -18 -40 -49h-64c14 78 51 131 106 131c44 0 60 -52 88 -52c20 0 34 18 40 49z" />
    <glyph glyph-name="scaron" unicode="&#x161;" horiz-adv-x="429" 
d="M219 506l-70 140h81l42 -79l70 79h87l-118 -140h-92zM14 131h98c7 -44 45 -59 85 -59c48 0 82 18 82 54c0 23 -11 35 -43 44l-79 22c-59 16 -99 47 -99 115c0 83 75 147 174 147c111 0 164 -57 171 -134h-95c-6 29 -29 52 -76 52c-44 0 -76 -20 -76 -53
c0 -19 10 -31 36 -39l81 -24c71 -21 103 -58 103 -115c0 -95 -81 -151 -180 -151c-112 0 -175 60 -182 141z" />
    <glyph glyph-name="uacute" unicode="&#xfa;" horiz-adv-x="492" 
d="M333 513h-91l101 137h105zM469 444l-78 -444h-100l8 42c-26 -26 -71 -52 -129 -52c-84 0 -129 55 -129 130c0 11 1 23 3 35l50 289h100l-48 -277c-2 -10 -3 -20 -3 -29c0 -38 19 -62 67 -62c44 0 89 34 108 76l51 292h100z" />
    <glyph glyph-name="ucircumflex" unicode="&#xfb;" horiz-adv-x="492" 
d="M360 646l70 -140h-81l-42 79l-70 -79h-87l118 140h92zM469 444l-78 -444h-100l8 42c-26 -26 -71 -52 -129 -52c-84 0 -129 55 -129 130c0 11 1 23 3 35l50 289h100l-48 -277c-2 -10 -3 -20 -3 -29c0 -38 19 -62 67 -62c44 0 89 34 108 76l51 292h100z" />
    <glyph glyph-name="udieresis" unicode="&#xfc;" horiz-adv-x="492" 
d="M170 572c0 34 26 59 59 59c32 0 58 -25 58 -59c0 -32 -26 -58 -58 -58c-33 0 -59 26 -59 58zM324 572c0 34 26 59 58 59s59 -25 59 -59c0 -32 -27 -58 -59 -58s-58 26 -58 58zM469 444l-78 -444h-100l8 42c-26 -26 -71 -52 -129 -52c-84 0 -129 55 -129 130
c0 11 1 23 3 35l50 289h100l-48 -277c-2 -10 -3 -20 -3 -29c0 -38 19 -62 67 -62c44 0 89 34 108 76l51 292h100z" />
    <glyph glyph-name="ugrave" unicode="&#xf9;" horiz-adv-x="492" 
d="M469 444l-78 -444h-100l8 42c-26 -26 -71 -52 -129 -52c-84 0 -129 55 -129 130c0 11 1 23 3 35l50 289h100l-48 -277c-2 -10 -3 -20 -3 -29c0 -38 19 -62 67 -62c44 0 89 34 108 76l51 292h100zM334 513h-83l-67 137h97z" />
    <glyph glyph-name="yacute" unicode="&#xfd;" horiz-adv-x="476" 
d="M129 -170h-100l99 170l-70 444h98l49 -325l185 325h108zM316 513h-91l101 137h105z" />
    <glyph glyph-name="ydieresis" unicode="&#xff;" horiz-adv-x="476" 
d="M129 -170h-100l99 170l-70 444h98l49 -325l185 325h108zM154 572c0 34 26 59 59 59c32 0 58 -25 58 -59c0 -32 -26 -58 -58 -58c-33 0 -59 26 -59 58zM308 572c0 34 26 59 58 59s59 -25 59 -59c0 -32 -27 -58 -59 -58s-58 26 -58 58z" />
    <glyph glyph-name="zcaron" unicode="&#x17e;" horiz-adv-x="446" 
d="M225 506l-70 140h81l42 -79l70 79h87l-118 -140h-92zM378 83l-14 -83h-360l11 63l280 298h-218l15 83h346l-11 -63l-280 -298h231z" />
    <glyph glyph-name="Euro" unicode="&#x20ac;" horiz-adv-x="541" 
d="M45 336l13 77h56c41 114 127 211 257 211c111 0 177 -63 190 -170h-94c-10 47 -46 79 -99 79c-75 0 -124 -53 -153 -120h194l-28 -77h-189c-4 -21 -7 -43 -8 -63h178l-30 -77h-143c13 -70 51 -115 116 -115c56 0 92 30 113 79h96c-40 -109 -117 -170 -219 -170
c-112 0 -189 81 -206 206h-69l14 77h51c1 20 4 42 8 63h-48z" />
    <glyph glyph-name="approxequal" unicode="&#x2248;" horiz-adv-x="578" 
d="M97 312l13 76c44 26 83 37 118 37c70 0 112 -36 182 -36c35 0 75 11 122 38l-14 -76c-46 -27 -86 -38 -121 -38c-70 0 -112 37 -182 37c-35 0 -74 -11 -118 -38zM72 174l13 75c45 27 84 38 119 38c70 0 112 -37 182 -37c35 0 74 10 121 38l-13 -76
c-47 -27 -87 -37 -122 -37c-70 0 -111 36 -181 36c-35 0 -74 -11 -119 -37z" />
    <glyph glyph-name="notequal" unicode="&#x2260;" horiz-adv-x="578" 
d="M101 337l13 73h247l84 96h72l-84 -96h96l-13 -73h-146l-66 -76h199l-13 -73h-250l-82 -95h-72l82 95h-93l13 73h144l66 76h-197z" />
    <glyph glyph-name="lessequal" unicode="&#x2264;" horiz-adv-x="453" 
d="M82 307l17 101l340 126l-17 -91l-250 -88l219 -89l-14 -84zM40 73l14 79h317l-14 -79h-317z" />
    <glyph glyph-name="greaterequal" unicode="&#x2265;" horiz-adv-x="453" 
d="M371 152l-14 -79h-317l14 79h317zM416 409l-17 -101l-340 -126l17 91l250 88l-219 89l14 84z" />
    <glyph glyph-name="threesuperior" unicode="&#xb3;" horiz-adv-x="310" 
d="M161 418l11 61h19c27 0 51 12 51 42c0 16 -11 29 -31 29c-24 0 -40 -18 -46 -40h-84c16 63 66 109 137 109c66 0 102 -37 102 -89c0 -40 -26 -72 -53 -83c22 -14 33 -37 33 -63c0 -64 -55 -110 -125 -110c-74 0 -119 41 -119 102c0 4 1 9 1 9h82v-3c0 -24 12 -39 38 -39
c25 0 46 16 46 42c0 21 -15 33 -40 33h-22z" />
    <glyph glyph-name="Tcedilla" unicode="&#x162;" horiz-adv-x="572" 
d="M163 -217l45 56c-25 7 -42 27 -42 56c0 36 27 61 61 61c35 0 62 -24 62 -65c0 -26 -16 -53 -33 -73l-28 -35h-65zM83 522l16 92h512l-16 -92h-204l-92 -522h-104l92 522h-204z" />
    <glyph glyph-name="tcedilla" unicode="&#x163;" horiz-adv-x="333" 
d="M69 -217l45 56c-25 7 -42 27 -42 56c0 36 27 61 61 61c35 0 62 -24 62 -65c0 -26 -16 -53 -33 -73l-28 -35h-65zM69 120l45 241h-72l15 83h72l22 119h100l-22 -119h98l-15 -83h-98l-42 -224c-1 -7 -2 -12 -2 -21c0 -26 16 -37 44 -37c20 0 45 8 61 18l-16 -91
c-19 -10 -47 -16 -78 -16c-69 0 -115 33 -115 100c0 9 1 19 3 30z" />
    <glyph glyph-name="i.dot" horiz-adv-x="225" 
d="M203 444l-78 -444h-100l78 444h100zM239 578c0 -34 -29 -61 -62 -61s-62 27 -62 61s29 61 62 61s62 -27 62 -61z" />
    <glyph glyph-name="uni0237" unicode="&#x237;" horiz-adv-x="224" 
d="M-99 -164l15 87c12 -10 30 -18 50 -18c32 0 45 20 53 62l84 477h100l-86 -484c-15 -88 -67 -140 -149 -140c-30 0 -52 7 -67 16z" />
    <glyph glyph-name="space_uni0326" 
d="M186 -217l45 56c-25 7 -42 27 -42 56c0 36 27 61 61 61c35 0 62 -24 62 -65c0 -26 -16 -53 -33 -73l-28 -35h-65z" />
    <glyph glyph-name="space_uni0326.alt" 
d="M312 696l-50 -62c25 -7 42 -27 42 -56c0 -36 -27 -61 -61 -61c-35 0 -62 24 -62 65c0 26 16 53 33 73l33 41h65z" />
    <glyph glyph-name="space_dotbelowcomb" 
d="M312 -105c0 -34 -29 -61 -62 -61s-62 27 -62 61s29 61 62 61s62 -27 62 -61z" />
    <glyph glyph-name="uni2117" unicode="&#x2117;" horiz-adv-x="704" 
d="M686 307c0 -184 -143 -317 -317 -317s-317 133 -317 317s143 317 317 317s317 -133 317 -317zM639 307c0 157 -122 271 -270 271s-270 -114 -270 -271s122 -271 270 -271s270 114 270 271zM406 239h-72v-115h-90v369h162c80 0 134 -45 134 -127s-54 -127 -134 -127z
M451 366c0 28 -16 48 -51 48h-66v-96h66c35 0 51 20 51 48z" />
    <glyph glyph-name=".null" horiz-adv-x="0" 
 />
    <glyph glyph-name="Abreve" unicode="&#x102;" horiz-adv-x="612" 
d="M333 614h100l124 -614h-104l-32 170h-235l-94 -170h-107zM391 667c-71 0 -123 44 -109 124h73c-6 -35 13 -51 45 -51c33 0 58 16 64 51h73c-14 -80 -63 -124 -146 -124zM361 487l-126 -227h169z" />
    <glyph glyph-name="Amacron" unicode="&#x100;" horiz-adv-x="612" 
d="M333 614h100l124 -614h-104l-32 170h-235l-94 -170h-107zM361 487l-126 -227h169zM277 671l14 79h225l-14 -79h-225z" />
    <glyph glyph-name="Aogonek" unicode="&#x104;" horiz-adv-x="612" 
d="M333 614h100l124 -614c-39 -50 -66 -76 -66 -102c0 -11 6 -18 17 -18c12 0 22 5 40 16l-11 -64c-18 -12 -39 -22 -63 -22c-44 0 -63 25 -63 57c0 51 39 90 75 133h-33l-32 170h-235l-94 -170h-107zM361 487l-126 -227h169z" />
    <glyph glyph-name="Aringacute" unicode="&#x1fa;" horiz-adv-x="612" 
d="M333 614h100l124 -614h-104l-32 170h-235l-94 -170h-107zM394 633c-51 0 -89 31 -89 74s42 80 96 80c51 0 89 -31 89 -74s-42 -80 -96 -80zM361 487l-126 -227h169zM460 806h-93l73 88h111zM396 678c22 0 43 11 43 34c0 19 -18 30 -40 30s-43 -11 -43 -34
c0 -19 18 -30 40 -30z" />
    <glyph glyph-name="AEacute" unicode="&#x1fc;" horiz-adv-x="872" 
d="M443 614h457l-16 -92h-289l-29 -162h261l-16 -91h-261l-31 -176h289l-16 -93h-391l30 170h-208l-127 -170h-111zM496 536l-206 -276h157zM729 671h-102l97 117h120z" />
    <glyph glyph-name="Cacute" unicode="&#x106;" horiz-adv-x="600" 
d="M49 268c0 178 118 356 309 356c135 0 219 -80 231 -203h-103c-14 64 -55 109 -128 109c-133 0 -204 -126 -204 -262c0 -107 58 -184 154 -184c82 0 127 41 157 110h103c-34 -124 -129 -204 -260 -204c-152 0 -259 111 -259 278zM422 671h-102l97 117h120z" />
    <glyph glyph-name="Ccaron" unicode="&#x10c;" horiz-adv-x="600" 
d="M336 671l-72 124h85l41 -60l61 60h93l-116 -124h-92zM49 268c0 178 118 356 309 356c135 0 219 -80 231 -203h-103c-14 64 -55 109 -128 109c-133 0 -204 -126 -204 -262c0 -107 58 -184 154 -184c82 0 127 41 157 110h103c-34 -124 -129 -204 -260 -204
c-152 0 -259 111 -259 278z" />
    <glyph glyph-name="Ccircumflex" unicode="&#x108;" horiz-adv-x="600" 
d="M49 268c0 178 118 356 309 356c135 0 219 -80 231 -203h-103c-14 64 -55 109 -128 109c-133 0 -204 -126 -204 -262c0 -107 58 -184 154 -184c82 0 127 41 157 110h103c-34 -124 -129 -204 -260 -204c-152 0 -259 111 -259 278zM444 795l72 -124h-85l-41 60l-61 -60h-93
l116 124h92z" />
    <glyph glyph-name="Cdotaccent" unicode="&#x10a;" horiz-adv-x="600" 
d="M451 728c0 -34 -29 -61 -62 -61s-62 27 -62 61s29 61 62 61s62 -27 62 -61zM49 268c0 178 118 356 309 356c135 0 219 -80 231 -203h-103c-14 64 -55 109 -128 109c-133 0 -204 -126 -204 -262c0 -107 58 -184 154 -184c82 0 127 41 157 110h103
c-34 -124 -129 -204 -260 -204c-152 0 -259 111 -259 278z" />
    <glyph glyph-name="Dcaron" unicode="&#x10e;" horiz-adv-x="610" 
d="M319 671l-72 124h85l41 -60l61 60h93l-116 -124h-92zM153 93h102c149 0 232 111 232 261c0 105 -53 168 -166 168h-92zM33 0l108 614h193c169 0 258 -96 258 -260c0 -194 -132 -354 -349 -354h-210z" />
    <glyph glyph-name="Dcroat" unicode="&#x110;" horiz-adv-x="624" 
d="M40 273l15 88h55l45 253h193c169 0 258 -96 258 -260c0 -194 -132 -354 -349 -354h-210l48 273h-55zM167 93h102c149 0 232 111 232 261c0 105 -53 168 -166 168h-92l-29 -161h116l-15 -88h-116z" />
    <glyph glyph-name="Ebreve" unicode="&#x114;" horiz-adv-x="514" 
d="M354 667c-71 0 -123 44 -109 124h73c-6 -35 13 -51 45 -51c33 0 58 16 64 51h73c-14 -80 -63 -124 -146 -124zM141 614h401l-16 -92h-299l-29 -162h271l-16 -91h-271l-31 -176h299l-16 -93h-401z" />
    <glyph glyph-name="Ecaron" unicode="&#x11a;" horiz-adv-x="514" 
d="M308 671l-72 124h85l41 -60l61 60h93l-116 -124h-92zM141 614h401l-16 -92h-299l-29 -162h271l-16 -91h-271l-31 -176h299l-16 -93h-401z" />
    <glyph glyph-name="Edotaccent" unicode="&#x116;" horiz-adv-x="514" 
d="M423 728c0 -34 -29 -61 -62 -61s-62 27 -62 61s29 61 62 61s62 -27 62 -61zM141 614h401l-16 -92h-299l-29 -162h271l-16 -91h-271l-31 -176h299l-16 -93h-401z" />
    <glyph glyph-name="Emacron" unicode="&#x112;" horiz-adv-x="514" 
d="M239 671l14 79h225l-14 -79h-225zM141 614h401l-16 -92h-299l-29 -162h271l-16 -91h-271l-31 -176h299l-16 -93h-401z" />
    <glyph glyph-name="Eogonek" unicode="&#x118;" horiz-adv-x="514" 
d="M141 614h401l-16 -92h-299l-29 -162h271l-16 -91h-271l-31 -176h299l-16 -93h-38c-39 -50 -66 -76 -66 -102c0 -11 6 -18 17 -18c12 0 22 5 40 16l-11 -64c-18 -12 -39 -22 -63 -22c-44 0 -63 25 -63 57c0 51 39 90 75 133h-292z" />
    <glyph glyph-name="Gbreve" unicode="&#x11e;" horiz-adv-x="622" 
d="M392 667c-71 0 -123 44 -109 124h73c-6 -35 13 -51 45 -51c33 0 58 16 64 51h73c-14 -80 -63 -124 -146 -124zM315 -10c-159 0 -266 111 -266 278c0 178 119 356 311 356c139 0 229 -79 241 -202h-101c-16 64 -62 108 -140 108c-134 0 -206 -126 -206 -262
c0 -107 58 -185 161 -185c86 0 161 65 175 145h-132l16 89h229l-13 -76c-25 -145 -131 -251 -275 -251z" />
    <glyph glyph-name="Gcircumflex" unicode="&#x11c;" horiz-adv-x="622" 
d="M454 795l72 -124h-85l-41 60l-61 -60h-93l116 124h92zM315 -10c-159 0 -266 111 -266 278c0 178 119 356 311 356c139 0 229 -79 241 -202h-101c-16 64 -62 108 -140 108c-134 0 -206 -126 -206 -262c0 -107 58 -185 161 -185c86 0 161 65 175 145h-132l16 89h229
l-13 -76c-25 -145 -131 -251 -275 -251z" />
    <glyph glyph-name="Gcommaaccent" unicode="&#x122;" horiz-adv-x="622" 
d="M209 -217l45 56c-25 7 -42 27 -42 56c0 36 27 61 61 61c35 0 62 -24 62 -65c0 -26 -16 -53 -33 -73l-28 -35h-65zM315 -10c-159 0 -266 111 -266 278c0 178 119 356 311 356c139 0 229 -79 241 -202h-101c-16 64 -62 108 -140 108c-134 0 -206 -126 -206 -262
c0 -107 58 -185 161 -185c86 0 161 65 175 145h-132l16 89h229l-13 -76c-25 -145 -131 -251 -275 -251z" />
    <glyph glyph-name="Gdotaccent" unicode="&#x120;" horiz-adv-x="622" 
d="M462 728c0 -34 -29 -61 -62 -61s-62 27 -62 61s29 61 62 61s62 -27 62 -61zM315 -10c-159 0 -266 111 -266 278c0 178 119 356 311 356c139 0 229 -79 241 -202h-101c-16 64 -62 108 -140 108c-134 0 -206 -126 -206 -262c0 -107 58 -185 161 -185c86 0 161 65 175 145
h-132l16 89h229l-13 -76c-25 -145 -131 -251 -275 -251z" />
    <glyph glyph-name="Hbar" unicode="&#x126;" horiz-adv-x="683" 
d="M568 614h104l-19 -105h55l-15 -86h-55l-74 -423h-104l40 231h-309l-40 -231h-104l74 423h-55l15 86h55l19 105h104l-19 -105h309zM206 315h309l19 108h-309z" />
    <glyph glyph-name="Hcircumflex" unicode="&#x124;" horiz-adv-x="653" 
d="M554 614h104l-108 -614h-104l47 269h-309l-47 -269h-104l108 614h104l-45 -253h309zM474 795l72 -124h-85l-41 60l-61 -60h-93l116 124h92z" />
    <glyph glyph-name="Ibreve" unicode="&#x12c;" horiz-adv-x="240" 
d="M245 614l-108 -614h-104l108 614h104zM206 667c-71 0 -123 44 -109 124h73c-6 -35 13 -51 45 -51c33 0 58 16 64 51h73c-14 -80 -63 -124 -146 -124z" />
    <glyph glyph-name="Idotaccent" unicode="&#x130;" horiz-adv-x="240" 
d="M245 614l-108 -614h-104l108 614h104zM275 728c0 -34 -29 -61 -62 -61s-62 27 -62 61s29 61 62 61s62 -27 62 -61z" />
    <glyph glyph-name="Imacron" unicode="&#x12a;" horiz-adv-x="240" 
d="M245 614l-108 -614h-104l108 614h104zM91 671l14 79h225l-14 -79h-225z" />
    <glyph glyph-name="Iogonek" unicode="&#x12e;" horiz-adv-x="240" 
d="M245 614l-108 -614c-38 -50 -66 -76 -66 -102c0 -11 6 -18 17 -18c12 0 22 5 40 16l-11 -64c-18 -12 -39 -22 -63 -22c-44 0 -63 25 -63 57c0 51 39 90 75 133h-33l108 614h104z" />
    <glyph glyph-name="Itilde" unicode="&#x128;" horiz-adv-x="240" 
d="M245 614l-108 -614h-104l108 614h104zM300 799h64c-13 -78 -51 -131 -106 -131c-43 0 -59 52 -88 52c-21 0 -34 -18 -40 -49h-64c14 78 51 131 106 131c44 0 60 -52 88 -52c20 0 34 18 40 49z" />
    <glyph glyph-name="IJ" unicode="&#x132;" horiz-adv-x="736" 
d="M266 188h106v-8c0 -57 25 -95 89 -95c67 0 104 52 119 136l69 393h104l-71 -407c-23 -129 -103 -217 -221 -217c-124 0 -196 71 -196 177c0 7 1 21 1 21zM245 614l-108 -614h-104l108 614h104z" />
    <glyph glyph-name="Jcircumflex" unicode="&#x134;" horiz-adv-x="496" 
d="M26 188h106v-8c0 -57 25 -95 89 -95c67 0 104 52 119 136l69 393h104l-71 -407c-23 -129 -103 -217 -221 -217c-124 0 -196 71 -196 177c0 7 1 21 1 21zM536 795l72 -124h-85l-41 60l-61 -60h-93l116 124h92z" />
    <glyph glyph-name="Kcommaaccent" unicode="&#x136;" horiz-adv-x="574" 
d="M164 -217l45 56c-25 7 -42 27 -42 56c0 36 27 61 61 61c35 0 62 -24 62 -65c0 -26 -16 -53 -33 -73l-28 -35h-65zM245 614l-52 -294l307 294h134l-299 -281l200 -333h-119l-161 267l-85 -77l-33 -190h-104l108 614h104z" />
    <glyph glyph-name="Lacute" unicode="&#x139;" horiz-adv-x="505" 
d="M262 671h-102l97 117h120zM33 0l108 614h104l-92 -521h295l-16 -93h-399z" />
    <glyph glyph-name="Lcaron" unicode="&#x13d;" horiz-adv-x="505" 
d="M394 447h-82l76 167h82zM33 0l108 614h104l-92 -521h295l-16 -93h-399z" />
    <glyph glyph-name="Lcommaaccent" unicode="&#x13b;" horiz-adv-x="505" 
d="M149 -217l45 56c-25 7 -42 27 -42 56c0 36 27 61 61 61c35 0 62 -24 62 -65c0 -26 -16 -53 -33 -73l-28 -35h-65zM33 0l108 614h104l-92 -521h295l-16 -93h-399z" />
    <glyph glyph-name="Ldot" unicode="&#x13f;" horiz-adv-x="505" 
d="M33 0l108 614h104l-92 -521h295l-16 -93h-399zM452 311c0 -34 -29 -61 -62 -61s-62 27 -62 61s29 61 62 61s62 -27 62 -61z" />
    <glyph glyph-name="Nacute" unicode="&#x143;" horiz-adv-x="630" 
d="M442 671h-102l97 117h120zM635 614l-108 -614h-80l-234 460l-80 -460h-100l108 614h98l219 -439l77 439h100z" />
    <glyph glyph-name="Ncaron" unicode="&#x147;" horiz-adv-x="630" 
d="M355 671l-72 124h85l41 -60l61 60h93l-116 -124h-92zM635 614l-108 -614h-80l-234 460l-80 -460h-100l108 614h98l219 -439l77 439h100z" />
    <glyph glyph-name="Ncommaaccent" unicode="&#x145;" horiz-adv-x="630" 
d="M196 -217l45 56c-25 7 -42 27 -42 56c0 36 27 61 61 61c35 0 62 -24 62 -65c0 -26 -16 -53 -33 -73l-28 -35h-65zM635 614l-108 -614h-80l-234 460l-80 -460h-100l108 614h98l219 -439l77 439h100z" />
    <glyph glyph-name="Eng" unicode="&#x14a;" horiz-adv-x="630" 
d="M429 34l-216 426l-80 -460h-100l108 614h98l219 -439l77 439h100l-102 -582c-27 -154 -104 -222 -224 -222c-41 0 -70 12 -94 24l17 97c24 -16 48 -26 82 -26c66 0 98 39 115 129z" />
    <glyph glyph-name="Obreve" unicode="&#x14e;" horiz-adv-x="637" 
d="M397 667c-71 0 -123 44 -109 124h73c-6 -35 13 -51 45 -51c33 0 58 16 64 51h73c-14 -80 -63 -124 -146 -124zM307 83c117 0 207 107 207 263c0 103 -57 185 -153 185c-117 0 -207 -107 -207 -263c0 -103 57 -185 153 -185zM307 -10c-157 0 -258 114 -258 278
c0 203 140 356 312 356c157 0 258 -114 258 -278c0 -203 -140 -356 -312 -356z" />
    <glyph glyph-name="Ohungarumlaut" unicode="&#x150;" horiz-adv-x="637" 
d="M307 83c117 0 207 107 207 263c0 103 -57 185 -153 185c-117 0 -207 -107 -207 -263c0 -103 57 -185 153 -185zM307 -10c-157 0 -258 114 -258 278c0 203 140 356 312 356c157 0 258 -114 258 -278c0 -203 -140 -356 -312 -356zM361 671h-87l80 117h89zM502 671h-87
l80 117h89z" />
    <glyph glyph-name="Omacron" unicode="&#x14c;" horiz-adv-x="637" 
d="M282 671l14 79h225l-14 -79h-225zM307 83c117 0 207 107 207 263c0 103 -57 185 -153 185c-117 0 -207 -107 -207 -263c0 -103 57 -185 153 -185zM307 -10c-157 0 -258 114 -258 278c0 203 140 356 312 356c157 0 258 -114 258 -278c0 -203 -140 -356 -312 -356z" />
    <glyph glyph-name="Oslashacute" unicode="&#x1fe;" horiz-adv-x="647" 
d="M55 27l52 61c-34 47 -53 109 -53 180c0 203 140 356 312 356c61 0 113 -17 154 -48l44 52l58 -41l-52 -61c35 -47 54 -109 54 -180c0 -203 -140 -356 -312 -356c-61 0 -113 17 -155 47l-43 -51zM312 83c117 0 207 107 207 263c0 35 -7 68 -20 96l-277 -328
c24 -20 54 -31 90 -31zM159 268c0 -35 6 -68 19 -96l277 328c-24 19 -54 31 -89 31c-117 0 -207 -107 -207 -263zM438 671h-102l97 117h120z" />
    <glyph glyph-name="Racute" unicode="&#x154;" horiz-adv-x="555" 
d="M261 249h-81l-43 -249h-104l108 614h225c124 0 187 -57 187 -162c0 -113 -76 -182 -186 -199l133 -253h-112zM229 524l-33 -188h129c76 0 124 39 124 113c0 45 -30 75 -92 75h-128zM401 671h-102l97 117h120z" />
    <glyph glyph-name="Rcaron" unicode="&#x158;" horiz-adv-x="555" 
d="M261 249h-81l-43 -249h-104l108 614h225c124 0 187 -57 187 -162c0 -113 -76 -182 -186 -199l133 -253h-112zM229 524l-33 -188h129c76 0 124 39 124 113c0 45 -30 75 -92 75h-128zM314 671l-72 124h85l41 -60l61 60h93l-116 -124h-92z" />
    <glyph glyph-name="Rcommaaccent" unicode="&#x156;" horiz-adv-x="555" 
d="M261 249h-81l-43 -249h-104l108 614h225c124 0 187 -57 187 -162c0 -113 -76 -182 -186 -199l133 -253h-112zM229 524l-33 -188h129c76 0 124 39 124 113c0 45 -30 75 -92 75h-128zM155 -217l45 56c-25 7 -42 27 -42 56c0 36 27 61 61 61c35 0 62 -24 62 -65
c0 -26 -16 -53 -33 -73l-28 -35h-65z" />
    <glyph glyph-name="Sacute" unicode="&#x15a;" horiz-adv-x="519" 
d="M517 447h-101c-6 49 -48 89 -118 89c-68 0 -118 -35 -118 -95c0 -34 16 -58 66 -72l101 -29c79 -23 129 -68 129 -147c0 -127 -107 -203 -229 -203c-127 0 -220 63 -230 187h102c10 -68 65 -99 128 -99c74 0 128 35 128 103c0 33 -19 56 -75 72l-98 28
c-71 20 -123 61 -123 146c0 113 91 197 219 197c136 0 211 -71 219 -177zM370 671h-102l97 117h120z" />
    <glyph glyph-name="Scedilla" unicode="&#x15e;" horiz-adv-x="519" 
d="M517 447h-101c-6 49 -48 89 -118 89c-68 0 -118 -35 -118 -95c0 -34 16 -58 66 -72l101 -29c79 -23 129 -68 129 -147c0 -127 -107 -203 -229 -203c-127 0 -220 63 -230 187h102c10 -68 65 -99 128 -99c74 0 128 35 128 103c0 33 -19 56 -75 72l-98 28
c-71 20 -123 61 -123 146c0 113 91 197 219 197c136 0 211 -71 219 -177zM157 -190h-98l96 137h103z" />
    <glyph glyph-name="Scircumflex" unicode="&#x15c;" horiz-adv-x="519" 
d="M517 447h-101c-6 49 -48 89 -118 89c-68 0 -118 -35 -118 -95c0 -34 16 -58 66 -72l101 -29c79 -23 129 -68 129 -147c0 -127 -107 -203 -229 -203c-127 0 -220 63 -230 187h102c10 -68 65 -99 128 -99c74 0 128 35 128 103c0 33 -19 56 -75 72l-98 28
c-71 20 -123 61 -123 146c0 113 91 197 219 197c136 0 211 -71 219 -177zM391 795l72 -124h-85l-41 60l-61 -60h-93l116 124h92z" />
    <glyph glyph-name="Scommaaccent" unicode="&#x218;" horiz-adv-x="519" 
d="M144 -217l45 56c-25 7 -42 27 -42 56c0 36 27 61 61 61c35 0 62 -24 62 -65c0 -26 -16 -53 -33 -73l-28 -35h-65zM517 447h-101c-6 49 -48 89 -118 89c-68 0 -118 -35 -118 -95c0 -34 16 -58 66 -72l101 -29c79 -23 129 -68 129 -147c0 -127 -107 -203 -229 -203
c-127 0 -220 63 -230 187h102c10 -68 65 -99 128 -99c74 0 128 35 128 103c0 33 -19 56 -75 72l-98 28c-71 20 -123 61 -123 146c0 113 91 197 219 197c136 0 211 -71 219 -177z" />
    <glyph glyph-name="Tbar" unicode="&#x166;" horiz-adv-x="572" 
d="M83 522l16 92h512l-16 -92h-204l-29 -161h110l-15 -88h-110l-48 -273h-104l48 273h-110l15 88h110l29 161h-204z" />
    <glyph glyph-name="Tcaron" unicode="&#x164;" horiz-adv-x="572" 
d="M323 671l-72 124h85l41 -60l61 60h93l-116 -124h-92zM83 522l16 92h512l-16 -92h-204l-92 -522h-104l92 522h-204z" />
    <glyph glyph-name="Ubreve" unicode="&#x16c;" horiz-adv-x="608" 
d="M384 667c-71 0 -123 44 -109 124h73c-6 -35 13 -51 45 -51c33 0 58 16 64 51h73c-14 -80 -63 -124 -146 -124zM285 -10c-134 0 -224 68 -224 199c0 18 2 38 8 71l62 354h104l-63 -358c-3 -19 -5 -36 -5 -52c0 -77 38 -121 118 -121c95 0 150 55 171 173l63 358h104
l-65 -370c-29 -164 -128 -254 -273 -254z" />
    <glyph glyph-name="Uhungarumlaut" unicode="&#x170;" horiz-adv-x="608" 
d="M285 -10c-134 0 -224 68 -224 199c0 18 2 38 8 71l62 354h104l-63 -358c-3 -19 -5 -36 -5 -52c0 -77 38 -121 118 -121c95 0 150 55 171 173l63 358h104l-65 -370c-29 -164 -128 -254 -273 -254zM348 671h-87l80 117h89zM489 671h-87l80 117h89z" />
    <glyph glyph-name="Umacron" unicode="&#x16a;" horiz-adv-x="608" 
d="M269 671l14 79h225l-14 -79h-225zM285 -10c-134 0 -224 68 -224 199c0 18 2 38 8 71l62 354h104l-63 -358c-3 -19 -5 -36 -5 -52c0 -77 38 -121 118 -121c95 0 150 55 171 173l63 358h104l-65 -370c-29 -164 -128 -254 -273 -254z" />
    <glyph glyph-name="Uogonek" unicode="&#x172;" horiz-adv-x="608" 
d="M285 -10c-134 0 -224 68 -224 199c0 18 2 38 8 71l62 354h104l-63 -358c-3 -19 -5 -36 -5 -52c0 -77 38 -121 118 -121c95 0 150 55 171 173l63 358h104l-65 -370c-19 -109 -70 -174 -129 -220c-66 -52 -97 -99 -97 -126c0 -11 6 -18 17 -18c12 0 22 5 40 16l-11 -64
c-18 -12 -39 -22 -63 -22c-44 0 -63 25 -63 57c0 48 34 85 68 125c-11 -1 -23 -2 -35 -2z" />
    <glyph glyph-name="Uring" unicode="&#x16e;" horiz-adv-x="608" 
d="M285 -10c-134 0 -224 68 -224 199c0 18 2 38 8 71l62 354h104l-63 -358c-3 -19 -5 -36 -5 -52c0 -77 38 -121 118 -121c95 0 150 55 171 173l63 358h104l-65 -370c-29 -164 -128 -254 -273 -254zM391 698c23 0 44 17 44 44c0 23 -18 40 -40 40c-23 0 -44 -17 -44 -44
c0 -23 18 -40 40 -40zM389 649c-51 0 -89 37 -89 87c0 51 42 95 97 95c51 0 89 -37 89 -87c0 -51 -42 -95 -97 -95z" />
    <glyph glyph-name="Utilde" unicode="&#x168;" horiz-adv-x="608" 
d="M478 799h64c-13 -78 -51 -131 -106 -131c-43 0 -59 52 -88 52c-21 0 -34 -18 -40 -49h-64c14 78 51 131 106 131c44 0 60 -52 88 -52c20 0 34 18 40 49zM285 -10c-134 0 -224 68 -224 199c0 18 2 38 8 71l62 354h104l-63 -358c-3 -19 -5 -36 -5 -52
c0 -77 38 -121 118 -121c95 0 150 55 171 173l63 358h104l-65 -370c-29 -164 -128 -254 -273 -254z" />
    <glyph glyph-name="Wacute" unicode="&#x1e82;" horiz-adv-x="780" 
d="M517 671h-102l97 117h120zM421 614h84l27 -452l200 452h102l-279 -614h-96l-31 439l-203 -439h-95l-37 614h100l22 -452z" />
    <glyph glyph-name="Wcircumflex" unicode="&#x174;" horiz-adv-x="780" 
d="M421 614h84l27 -452l200 452h102l-279 -614h-96l-31 439l-203 -439h-95l-37 614h100l22 -452zM538 795l72 -124h-85l-41 60l-61 -60h-93l116 124h92z" />
    <glyph glyph-name="Wgrave" unicode="&#x1e80;" horiz-adv-x="780" 
d="M520 671h-92l-75 117h110zM421 614h84l27 -452l200 452h102l-279 -614h-96l-31 439l-203 -439h-95l-37 614h100l22 -452z" />
    <glyph glyph-name="Wdieresis" unicode="&#x1e84;" horiz-adv-x="780" 
d="M348 728c0 34 26 59 59 59c32 0 58 -25 58 -59c0 -32 -26 -58 -58 -58c-33 0 -59 26 -59 58zM502 728c0 34 26 59 58 59s59 -25 59 -59c0 -32 -27 -58 -59 -58s-58 26 -58 58zM421 614h84l27 -452l200 452h102l-279 -614h-96l-31 439l-203 -439h-95l-37 614h100l22 -452z
" />
    <glyph glyph-name="Ycircumflex" unicode="&#x176;" horiz-adv-x="578" 
d="M311 339l211 275h114l-288 -369l-43 -245h-103l43 245l-157 369h109zM436 795l72 -124h-85l-41 60l-61 -60h-93l116 124h92z" />
    <glyph glyph-name="Ygrave" unicode="&#x1ef2;" horiz-adv-x="578" 
d="M311 339l211 275h114l-288 -369l-43 -245h-103l43 245l-157 369h109zM417 671h-92l-75 117h110z" />
    <glyph glyph-name="Zacute" unicode="&#x179;" horiz-adv-x="549" 
d="M486 93l-16 -93h-459l12 73l401 449h-313l16 92h449l-13 -72l-399 -449h322zM397 671h-102l97 117h120z" />
    <glyph glyph-name="Zdotaccent" unicode="&#x17b;" horiz-adv-x="549" 
d="M425 728c0 -34 -29 -61 -62 -61s-62 27 -62 61s29 61 62 61s62 -27 62 -61zM486 93l-16 -93h-459l12 73l401 449h-313l16 92h449l-13 -72l-399 -449h322z" />
    <glyph glyph-name="abreve" unicode="&#x103;" horiz-adv-x="464" 
d="M421 291l-51 -291h-96l4 25c-18 -15 -57 -33 -107 -33c-82 0 -151 46 -151 128c0 97 95 160 199 160c42 0 81 -12 99 -27l7 36c1 7 2 14 2 21c0 34 -20 59 -68 59c-43 0 -70 -19 -88 -48h-97c27 76 102 133 197 133c96 0 153 -55 153 -133c0 -10 -1 -20 -3 -30zM294 118
l7 37c-6 28 -42 45 -82 45c-48 0 -104 -22 -104 -74c0 -37 40 -53 81 -53c40 0 82 17 98 45zM295 495c-71 0 -122 48 -106 135h73c-7 -38 4 -65 40 -65s57 27 64 65h73c-16 -87 -69 -135 -144 -135z" />
    <glyph glyph-name="amacron" unicode="&#x101;" horiz-adv-x="464" 
d="M421 291l-51 -291h-96l4 25c-18 -15 -57 -33 -107 -33c-82 0 -151 46 -151 128c0 97 95 160 199 160c42 0 81 -12 99 -27l7 36c1 7 2 14 2 21c0 34 -20 59 -68 59c-43 0 -70 -19 -88 -48h-97c27 76 102 133 197 133c96 0 153 -55 153 -133c0 -10 -1 -20 -3 -30zM294 118
l7 37c-6 28 -42 45 -82 45c-48 0 -104 -22 -104 -74c0 -37 40 -53 81 -53c40 0 82 17 98 45zM185 524l14 79h225l-14 -79h-225z" />
    <glyph glyph-name="aogonek" unicode="&#x105;" horiz-adv-x="464" 
d="M294 118l7 37c-6 28 -42 45 -82 45c-48 0 -104 -22 -104 -74c0 -37 40 -53 81 -53c40 0 82 17 98 45zM274 0l4 25c-18 -15 -57 -33 -107 -33c-82 0 -151 46 -151 128c0 97 95 160 199 160c42 0 81 -12 99 -27l7 36c1 7 2 14 2 21c0 34 -20 59 -68 59
c-43 0 -70 -19 -88 -48h-97c27 76 102 133 197 133c96 0 153 -55 153 -133c0 -10 -1 -20 -3 -30l-51 -291c-38 -50 -66 -76 -66 -102c0 -11 6 -18 17 -18c12 0 22 5 40 16l-11 -64c-18 -12 -39 -22 -63 -22c-44 0 -63 25 -63 57c0 51 39 90 75 133h-25z" />
    <glyph glyph-name="aringacute" unicode="&#x1fb;" horiz-adv-x="464" 
d="M302 518c22 0 43 11 43 34c0 19 -18 30 -40 30s-43 -11 -43 -34c0 -19 18 -30 40 -30zM300 473c-51 0 -89 31 -89 74s42 80 96 80c51 0 89 -31 89 -74s-42 -80 -96 -80zM366 646h-93l73 88h111zM421 291l-51 -291h-96l4 25c-18 -15 -57 -33 -107 -33
c-82 0 -151 46 -151 128c0 97 95 160 199 160c42 0 81 -12 99 -27l7 36c1 7 2 14 2 21c0 34 -20 59 -68 59c-43 0 -70 -19 -88 -48h-97c27 76 102 133 197 133c96 0 153 -55 153 -133c0 -10 -1 -20 -3 -30zM294 118l7 37c-6 28 -42 45 -82 45c-48 0 -104 -22 -104 -74
c0 -37 40 -53 81 -53c40 0 82 17 98 45z" />
    <glyph glyph-name="aeacute" unicode="&#x1fd;" horiz-adv-x="739" 
d="M466 513h-91l101 137h105zM597 138h100c-25 -88 -100 -148 -205 -148c-70 0 -124 25 -152 73c-45 -49 -112 -71 -177 -71c-82 0 -143 44 -143 124c0 93 93 157 202 157h100c3 22 3 28 3 34c0 36 -17 62 -67 62c-43 0 -70 -19 -88 -48h-97c27 76 102 133 197 133
c62 0 105 -20 130 -66c31 38 86 66 141 66c112 0 172 -71 172 -179c0 -20 -4 -52 -9 -78h-305v-11c0 -70 33 -112 99 -112c45 0 82 21 99 64zM297 135l11 62h-92c-48 0 -101 -17 -101 -72c0 -36 33 -52 71 -52c48 0 88 23 111 62zM537 370c-62 0 -103 -43 -123 -97h202
c1 5 1 10 1 14c0 47 -29 83 -80 83z" />
    <glyph glyph-name="cacute" unicode="&#x107;" horiz-adv-x="451" 
d="M327 513h-91l101 137h105zM316 139h99c-24 -93 -99 -149 -200 -149c-110 0 -184 78 -184 199c0 134 93 265 235 265c104 0 164 -58 169 -149h-99c-5 39 -31 62 -72 62c-89 0 -132 -91 -132 -178c0 -68 33 -112 91 -112c45 0 78 23 93 62z" />
    <glyph glyph-name="ccaron" unicode="&#x10d;" horiz-adv-x="451" 
d="M243 506l-70 140h81l42 -79l70 79h87l-118 -140h-92zM316 139h99c-24 -93 -99 -149 -200 -149c-110 0 -184 78 -184 199c0 134 93 265 235 265c104 0 164 -58 169 -149h-99c-5 39 -31 62 -72 62c-89 0 -132 -91 -132 -178c0 -68 33 -112 91 -112c45 0 78 23 93 62z" />
    <glyph glyph-name="ccircumflex" unicode="&#x109;" horiz-adv-x="451" 
d="M354 646l70 -140h-81l-42 79l-70 -79h-87l118 140h92zM316 139h99c-24 -93 -99 -149 -200 -149c-110 0 -184 78 -184 199c0 134 93 265 235 265c104 0 164 -58 169 -149h-99c-5 39 -31 62 -72 62c-89 0 -132 -91 -132 -178c0 -68 33 -112 91 -112c45 0 78 23 93 62z" />
    <glyph glyph-name="cdotaccent" unicode="&#x10b;" horiz-adv-x="451" 
d="M316 139h99c-24 -93 -99 -149 -200 -149c-110 0 -184 78 -184 199c0 134 93 265 235 265c104 0 164 -58 169 -149h-99c-5 39 -31 62 -72 62c-89 0 -132 -91 -132 -178c0 -68 33 -112 91 -112c45 0 78 23 93 62zM362 578c0 -34 -29 -61 -62 -61s-62 27 -62 61s29 61 62 61
s62 -27 62 -61z" />
    <glyph glyph-name="dcaron" unicode="&#x10f;" horiz-adv-x="514" 
d="M624 483h-82l76 167h82zM382 405l43 245h100l-114 -650h-100l8 44c-25 -29 -71 -54 -120 -54c-111 0 -168 84 -168 195c0 141 102 269 239 269c57 0 96 -24 112 -49zM337 146l28 160c-11 35 -44 59 -91 59c-89 0 -143 -90 -143 -180c0 -61 34 -106 93 -106
c52 0 89 32 113 67z" />
    <glyph glyph-name="dcroat" unicode="&#x111;" horiz-adv-x="514" 
d="M298 502l12 70h101l14 78h100l-14 -78h60l-12 -70h-60l-88 -502h-100l8 44c-25 -29 -71 -54 -120 -54c-111 0 -168 84 -168 195c0 141 102 269 239 269c57 0 96 -24 112 -49l17 97h-101zM337 146l28 160c-11 35 -44 59 -91 59c-89 0 -143 -90 -143 -180
c0 -61 34 -106 93 -106c52 0 89 32 113 67z" />
    <glyph glyph-name="ebreve" unicode="&#x115;" horiz-adv-x="469" 
d="M327 138h100c-25 -88 -100 -148 -205 -148c-120 0 -191 80 -191 198c0 132 92 266 240 266c112 0 172 -71 172 -179c0 -20 -4 -50 -9 -76h-305v-11c0 -70 33 -114 99 -114c44 0 82 21 99 64zM291 495c-71 0 -122 48 -106 135h73c-7 -38 4 -65 40 -65s57 27 64 65h73
c-16 -87 -69 -135 -144 -135zM267 370c-63 0 -104 -43 -124 -98h203c1 6 1 9 1 13c0 47 -29 85 -80 85z" />
    <glyph glyph-name="ecaron" unicode="&#x11b;" horiz-adv-x="469" 
d="M327 138h100c-25 -88 -100 -148 -205 -148c-120 0 -191 80 -191 198c0 132 92 266 240 266c112 0 172 -71 172 -179c0 -20 -4 -50 -9 -76h-305v-11c0 -70 33 -114 99 -114c44 0 82 21 99 64zM245 506l-70 140h81l42 -79l70 79h87l-118 -140h-92zM267 370
c-63 0 -104 -43 -124 -98h203c1 6 1 9 1 13c0 47 -29 85 -80 85z" />
    <glyph glyph-name="edotaccent" unicode="&#x117;" horiz-adv-x="469" 
d="M327 138h100c-25 -88 -100 -148 -205 -148c-120 0 -191 80 -191 198c0 132 92 266 240 266c112 0 172 -71 172 -179c0 -20 -4 -50 -9 -76h-305v-11c0 -70 33 -114 99 -114c44 0 82 21 99 64zM267 370c-63 0 -104 -43 -124 -98h203c1 6 1 9 1 13c0 47 -29 85 -80 85z
M364 578c0 -34 -29 -61 -62 -61s-62 27 -62 61s29 61 62 61s62 -27 62 -61z" />
    <glyph glyph-name="emacron" unicode="&#x113;" horiz-adv-x="469" 
d="M327 138h100c-25 -88 -100 -148 -205 -148c-120 0 -191 80 -191 198c0 132 92 266 240 266c112 0 172 -71 172 -179c0 -20 -4 -50 -9 -76h-305v-11c0 -70 33 -114 99 -114c44 0 82 21 99 64zM180 524l14 79h225l-14 -79h-225zM267 370c-63 0 -104 -43 -124 -98h203
c1 6 1 9 1 13c0 47 -29 85 -80 85z" />
    <glyph glyph-name="eogonek" unicode="&#x119;" horiz-adv-x="469" 
d="M327 138h100c-11 -35 -31 -66 -54 -92c-82 -90 -105 -121 -105 -148c0 -11 6 -18 17 -18c12 0 22 5 40 16l-11 -64c-18 -12 -39 -22 -63 -22c-44 0 -63 25 -63 57c0 48 34 86 68 126c-11 -2 -22 -3 -34 -3c-120 0 -191 80 -191 198c0 132 92 266 240 266
c112 0 172 -71 172 -179c0 -20 -4 -50 -9 -76h-305v-11c0 -70 33 -114 99 -114c44 0 82 21 99 64zM267 370c-63 0 -104 -43 -124 -98h203c1 6 1 9 1 13c0 47 -29 85 -80 85z" />
    <glyph glyph-name="gbreve" unicode="&#x11f;" horiz-adv-x="512" 
d="M316 29l5 28c-26 -31 -72 -53 -121 -53c-111 0 -168 82 -168 191c0 138 101 259 238 259c57 0 96 -24 112 -48l7 38h100l-74 -419c-23 -132 -108 -205 -231 -205c-110 0 -184 62 -184 156h97c2 -49 37 -74 88 -74c77 0 117 47 131 127zM339 157l27 152
c-10 32 -45 57 -92 57c-89 0 -142 -83 -142 -171c0 -60 34 -103 93 -103c52 0 90 31 114 65zM316 495c-71 0 -122 48 -106 135h73c-7 -38 4 -65 40 -65s57 27 64 65h73c-16 -87 -69 -135 -144 -135z" />
    <glyph glyph-name="gcircumflex" unicode="&#x11d;" horiz-adv-x="512" 
d="M381 646l70 -140h-81l-42 79l-70 -79h-87l118 140h92zM316 29l5 28c-26 -31 -72 -53 -121 -53c-111 0 -168 82 -168 191c0 138 101 259 238 259c57 0 96 -24 112 -48l7 38h100l-74 -419c-23 -132 -108 -205 -231 -205c-110 0 -184 62 -184 156h97c2 -49 37 -74 88 -74
c77 0 117 47 131 127zM339 157l27 152c-10 32 -45 57 -92 57c-89 0 -142 -83 -142 -171c0 -60 34 -103 93 -103c52 0 90 31 114 65z" />
    <glyph glyph-name="gcommaaccent" unicode="&#x123;" horiz-adv-x="512" 
d="M398 696l-50 -62c25 -7 42 -27 42 -56c0 -36 -27 -61 -61 -61c-35 0 -62 24 -62 65c0 26 16 53 33 73l33 41h65zM316 29l5 28c-26 -31 -72 -53 -121 -53c-111 0 -168 82 -168 191c0 138 101 259 238 259c57 0 96 -24 112 -48l7 38h100l-74 -419
c-23 -132 -108 -205 -231 -205c-110 0 -184 62 -184 156h97c2 -49 37 -74 88 -74c77 0 117 47 131 127zM339 157l27 152c-10 32 -45 57 -92 57c-89 0 -142 -83 -142 -171c0 -60 34 -103 93 -103c52 0 90 31 114 65z" />
    <glyph glyph-name="gdotaccent" unicode="&#x121;" horiz-adv-x="512" 
d="M389 578c0 -34 -29 -61 -62 -61s-62 27 -62 61s29 61 62 61s62 -27 62 -61zM316 29l5 28c-26 -31 -72 -53 -121 -53c-111 0 -168 82 -168 191c0 138 101 259 238 259c57 0 96 -24 112 -48l7 38h100l-74 -419c-23 -132 -108 -205 -231 -205c-110 0 -184 62 -184 156h97
c2 -49 37 -74 88 -74c77 0 117 47 131 127zM339 157l27 152c-10 32 -45 57 -92 57c-89 0 -142 -83 -142 -171c0 -60 34 -103 93 -103c52 0 90 31 114 65z" />
    <glyph glyph-name="hbar" unicode="&#x127;" horiz-adv-x="495" 
d="M53 502l12 70h60l14 78h100l-14 -78h101l-12 -70h-101l-18 -102c26 29 71 54 129 54c85 0 131 -56 131 -131c0 -11 -1 -22 -3 -34l-50 -289h-100l47 272c2 11 3 19 3 27c0 39 -21 64 -70 64c-43 0 -87 -30 -106 -72l-51 -291h-100l88 502h-60z" />
    <glyph glyph-name="hcircumflex" unicode="&#x125;" horiz-adv-x="495" 
d="M324 454c85 0 131 -56 131 -131c0 -11 -1 -22 -3 -34l-50 -289h-100l47 272c2 11 3 19 3 27c0 39 -21 64 -70 64c-43 0 -87 -30 -106 -72l-51 -291h-100l114 650h100l-44 -250c26 29 71 54 129 54zM366 801l72 -124h-85l-41 60l-61 -60h-93l116 124h92z" />
    <glyph glyph-name="ibreve" unicode="&#x12d;" horiz-adv-x="225" 
d="M163 495c-67 0 -106 48 -90 135h70c-7 -38 -3 -65 29 -65s46 27 53 65h72c-16 -87 -67 -135 -134 -135zM203 444l-78 -444h-100l78 444h100z" />
    <glyph glyph-name="imacron" unicode="&#x12b;" horiz-adv-x="225" 
d="M68 524l14 79h198l-14 -79h-198zM203 444l-78 -444h-100l78 444h100z" />
    <glyph glyph-name="iogonek" unicode="&#x12f;" horiz-adv-x="225" 
d="M239 578c0 -34 -29 -61 -62 -61s-62 27 -62 61s29 61 62 61s62 -27 62 -61zM25 0l78 444h100l-78 -444c-38 -50 -66 -76 -66 -102c0 -11 6 -18 17 -18c12 0 22 5 40 16l-11 -64c-18 -12 -39 -22 -63 -22c-44 0 -63 25 -63 57c0 51 39 90 75 133h-29z" />
    <glyph glyph-name="itilde" unicode="&#x129;" horiz-adv-x="225" 
d="M244 641h63c-13 -78 -49 -131 -96 -131c-38 0 -47 49 -70 49c-18 0 -29 -15 -35 -46h-63c14 78 49 131 96 131c38 0 48 -49 70 -49c17 0 29 15 35 46zM203 444l-78 -444h-100l78 444h100z" />
    <glyph glyph-name="ij" unicode="&#x133;" horiz-adv-x="448" 
d="M203 444l-78 -444h-100l78 444h100zM239 578c0 -34 -29 -61 -62 -61s-62 27 -62 61s29 61 62 61s62 -27 62 -61zM125 -164l15 87c12 -10 30 -18 50 -18c32 0 45 20 53 62l84 477h100l-86 -484c-15 -88 -67 -140 -149 -140c-30 0 -52 7 -67 16zM463 578
c0 -34 -29 -61 -62 -61s-62 27 -62 61s29 61 62 61s62 -27 62 -61z" />
    <glyph glyph-name="jcircumflex" unicode="&#x135;" horiz-adv-x="224" 
d="M233 646l52 -140h-80l-27 76l-53 -76h-84l100 140h92zM-99 -164l15 87c12 -10 30 -18 50 -18c32 0 45 20 53 62l84 477h100l-86 -484c-15 -88 -67 -140 -149 -140c-30 0 -52 7 -67 16z" />
    <glyph glyph-name="kcommaaccent" unicode="&#x137;" horiz-adv-x="466" 
d="M123 -217l45 56c-25 7 -42 27 -42 56c0 36 27 61 61 61c35 0 62 -24 62 -65c0 -26 -16 -53 -33 -73l-28 -35h-65zM322 0l-121 191l-50 -43l-26 -148h-100l114 650h100l-68 -387l201 181h133l-227 -195l156 -249h-112z" />
    <glyph glyph-name="kgreenlandic" unicode="&#x138;" horiz-adv-x="477" 
d="M322 0l-121 191l-50 -43l-26 -148h-100l77 444h100l-31 -181l201 181h133l-227 -195l156 -249h-112z" />
    <glyph glyph-name="lacute" unicode="&#x13a;" horiz-adv-x="224" 
d="M247 681h-102l97 117h120zM239 650l-114 -650h-100l114 650h100z" />
    <glyph glyph-name="lcaron" unicode="&#x13e;" horiz-adv-x="224" 
d="M337 483h-82l76 167h82zM239 650l-114 -650h-100l114 650h100z" />
    <glyph glyph-name="lcommaaccent" unicode="&#x13c;" horiz-adv-x="224" 
d="M-9 -217l45 56c-25 7 -42 27 -42 56c0 36 27 61 61 61c35 0 62 -24 62 -65c0 -26 -16 -53 -33 -73l-28 -35h-65zM239 650l-114 -650h-100l114 650h100z" />
    <glyph glyph-name="ldot" unicode="&#x140;" horiz-adv-x="377" 
d="M239 650l-114 -650h-100l114 650h100zM377 325c0 -34 -29 -61 -62 -61s-62 27 -62 61s29 61 62 61s62 -27 62 -61z" />
    <glyph glyph-name="nacute" unicode="&#x144;" horiz-adv-x="495" 
d="M346 513h-91l101 137h105zM25 0l78 444h100l-8 -44c26 29 71 54 129 54c85 0 131 -56 131 -131c0 -11 -1 -22 -3 -34l-50 -289h-100l47 272c2 11 3 19 3 27c0 39 -21 64 -70 64c-43 0 -87 -30 -106 -72l-51 -291h-100z" />
    <glyph glyph-name="ncaron" unicode="&#x148;" horiz-adv-x="495" 
d="M262 506l-70 140h81l42 -79l70 79h87l-118 -140h-92zM25 0l78 444h100l-8 -44c26 29 71 54 129 54c85 0 131 -56 131 -131c0 -11 -1 -22 -3 -34l-50 -289h-100l47 272c2 11 3 19 3 27c0 39 -21 64 -70 64c-43 0 -87 -30 -106 -72l-51 -291h-100z" />
    <glyph glyph-name="ncommaaccent" unicode="&#x146;" horiz-adv-x="495" 
d="M132 -217l45 56c-25 7 -42 27 -42 56c0 36 27 61 61 61c35 0 62 -24 62 -65c0 -26 -16 -53 -33 -73l-28 -35h-65zM25 0l78 444h100l-8 -44c26 29 71 54 129 54c85 0 131 -56 131 -131c0 -11 -1 -22 -3 -34l-50 -289h-100l47 272c2 11 3 19 3 27c0 39 -21 64 -70 64
c-43 0 -87 -30 -106 -72l-51 -291h-100z" />
    <glyph glyph-name="eng" unicode="&#x14b;" horiz-adv-x="495" 
d="M178 -164l15 87c12 -10 30 -18 50 -18c32 0 46 20 53 62l53 305c2 11 3 19 3 27c0 39 -21 64 -70 64c-43 0 -87 -30 -106 -72l-51 -291h-100l78 444h100l-8 -44c26 29 71 54 129 54c85 0 131 -56 131 -131c0 -11 -1 -22 -3 -34l-58 -329c-15 -88 -67 -140 -149 -140
c-30 0 -52 7 -67 16z" />
    <glyph glyph-name="obreve" unicode="&#x14f;" horiz-adv-x="485" 
d="M223 76c77 0 131 78 131 182c0 65 -33 110 -92 110c-77 0 -131 -78 -131 -182c0 -65 33 -110 92 -110zM222 -10c-122 0 -191 81 -191 196c0 154 105 268 232 268c122 0 191 -81 191 -196c0 -154 -105 -268 -232 -268zM290 495c-71 0 -122 48 -106 135h73
c-7 -38 4 -65 40 -65s57 27 64 65h73c-16 -87 -69 -135 -144 -135z" />
    <glyph glyph-name="ohungarumlaut" unicode="&#x151;" horiz-adv-x="485" 
d="M256 513h-82l84 137h84zM390 513h-82l84 137h84zM223 76c77 0 131 78 131 182c0 65 -33 110 -92 110c-77 0 -131 -78 -131 -182c0 -65 33 -110 92 -110zM222 -10c-122 0 -191 81 -191 196c0 154 105 268 232 268c122 0 191 -81 191 -196c0 -154 -105 -268 -232 -268z" />
    <glyph glyph-name="omacron" unicode="&#x14d;" horiz-adv-x="485" 
d="M179 524l14 79h225l-14 -79h-225zM223 76c77 0 131 78 131 182c0 65 -33 110 -92 110c-77 0 -131 -78 -131 -182c0 -65 33 -110 92 -110zM222 -10c-122 0 -191 81 -191 196c0 154 105 268 232 268c122 0 191 -81 191 -196c0 -154 -105 -268 -232 -268z" />
    <glyph glyph-name="oslashacute" unicode="&#x1ff;" horiz-adv-x="495" 
d="M26 -2l49 59c-26 34 -39 78 -39 129c0 154 105 268 232 268c43 0 80 -11 109 -29l45 54l48 -36l-49 -59c25 -33 38 -76 38 -126c0 -154 -105 -268 -232 -268c-43 0 -79 10 -108 27l-45 -55zM131 186c0 -19 2 -36 8 -51l181 220c-14 9 -32 15 -53 15
c-77 0 -136 -80 -136 -184zM228 74c77 0 136 80 136 184c0 17 -3 33 -7 48l-180 -219c14 -9 31 -13 51 -13zM329 513h-91l101 137h105z" />
    <glyph glyph-name="racute" unicode="&#x155;" horiz-adv-x="340" 
d="M277 513h-91l101 137h105zM351 446l-18 -103c-13 10 -35 15 -56 15c-41 0 -83 -23 -102 -71l-50 -287h-100l78 444h100l-8 -46c22 33 66 56 109 56c22 0 41 -4 47 -8z" />
    <glyph glyph-name="rcaron" unicode="&#x159;" horiz-adv-x="340" 
d="M193 506l-70 140h81l42 -79l70 79h87l-118 -140h-92zM351 446l-18 -103c-13 10 -35 15 -56 15c-41 0 -83 -23 -102 -71l-50 -287h-100l78 444h100l-8 -46c22 33 66 56 109 56c22 0 41 -4 47 -8z" />
    <glyph glyph-name="rcommaaccent" unicode="&#x157;" horiz-adv-x="340" 
d="M-8 -217l45 56c-25 7 -42 27 -42 56c0 36 27 61 61 61c35 0 62 -24 62 -65c0 -26 -16 -53 -33 -73l-28 -35h-65zM351 446l-18 -103c-13 10 -35 15 -56 15c-41 0 -83 -23 -102 -71l-50 -287h-100l78 444h100l-8 -46c22 33 66 56 109 56c22 0 41 -4 47 -8z" />
    <glyph glyph-name="sacute" unicode="&#x15b;" horiz-adv-x="429" 
d="M304 513h-91l101 137h105zM14 131h98c7 -44 45 -59 85 -59c48 0 82 18 82 54c0 23 -11 35 -43 44l-79 22c-59 16 -99 47 -99 115c0 83 75 147 174 147c111 0 164 -57 171 -134h-95c-6 29 -29 52 -76 52c-44 0 -76 -20 -76 -53c0 -19 10 -31 36 -39l81 -24
c71 -21 103 -58 103 -115c0 -95 -81 -151 -180 -151c-112 0 -175 60 -182 141z" />
    <glyph glyph-name="scedilla" unicode="&#x15f;" horiz-adv-x="429" 
d="M14 131h98c7 -44 45 -59 85 -59c48 0 82 18 82 54c0 23 -11 35 -43 44l-79 22c-59 16 -99 47 -99 115c0 83 75 147 174 147c111 0 164 -57 171 -134h-95c-6 29 -29 52 -76 52c-44 0 -76 -20 -76 -53c0 -19 10 -31 36 -39l81 -24c71 -21 103 -58 103 -115
c0 -95 -81 -151 -180 -151c-112 0 -175 60 -182 141zM123 -190h-98l96 137h103z" />
    <glyph glyph-name="scircumflex" unicode="&#x15d;" horiz-adv-x="429" 
d="M331 646l70 -140h-81l-42 79l-70 -79h-87l118 140h92zM14 131h98c7 -44 45 -59 85 -59c48 0 82 18 82 54c0 23 -11 35 -43 44l-79 22c-59 16 -99 47 -99 115c0 83 75 147 174 147c111 0 164 -57 171 -134h-95c-6 29 -29 52 -76 52c-44 0 -76 -20 -76 -53
c0 -19 10 -31 36 -39l81 -24c71 -21 103 -58 103 -115c0 -95 -81 -151 -180 -151c-112 0 -175 60 -182 141z" />
    <glyph glyph-name="scommaaccent" unicode="&#x219;" horiz-adv-x="429" 
d="M90 -217l45 56c-25 7 -42 27 -42 56c0 36 27 61 61 61c35 0 62 -24 62 -65c0 -26 -16 -53 -33 -73l-28 -35h-65zM14 131h98c7 -44 45 -59 85 -59c48 0 82 18 82 54c0 23 -11 35 -43 44l-79 22c-59 16 -99 47 -99 115c0 83 75 147 174 147c111 0 164 -57 171 -134h-95
c-6 29 -29 52 -76 52c-44 0 -76 -20 -76 -53c0 -19 10 -31 36 -39l81 -24c71 -21 103 -58 103 -115c0 -95 -81 -151 -180 -151c-112 0 -175 60 -182 141z" />
    <glyph glyph-name="tbar" unicode="&#x167;" horiz-adv-x="333" 
d="M22 199l14 79h62l16 83h-72l15 83h72l22 119h100l-22 -119h98l-15 -83h-98l-16 -83h86l-14 -79h-87l-11 -62c-1 -7 -2 -12 -2 -21c0 -26 16 -37 44 -37c20 0 45 8 61 18l-16 -91c-19 -10 -47 -16 -78 -16c-69 0 -115 33 -115 100c0 9 1 19 3 30l15 79h-62z" />
    <glyph glyph-name="tcaron" unicode="&#x165;" horiz-adv-x="333" 
d="M366 493h-82l76 167h82zM69 120l45 241h-72l15 83h72l22 119h100l-22 -119h98l-15 -83h-98l-42 -224c-1 -7 -2 -12 -2 -21c0 -26 16 -37 44 -37c20 0 45 8 61 18l-16 -91c-19 -10 -47 -16 -78 -16c-69 0 -115 33 -115 100c0 9 1 19 3 30z" />
    <glyph glyph-name="ubreve" unicode="&#x16d;" horiz-adv-x="492" 
d="M469 444l-78 -444h-100l8 42c-26 -26 -71 -52 -129 -52c-84 0 -129 55 -129 130c0 11 1 23 3 35l50 289h100l-48 -277c-2 -10 -3 -20 -3 -29c0 -38 19 -62 67 -62c44 0 89 34 108 76l51 292h100zM295 495c-71 0 -122 48 -106 135h73c-7 -38 4 -65 40 -65s57 27 64 65h73
c-16 -87 -69 -135 -144 -135z" />
    <glyph glyph-name="uhungarumlaut" unicode="&#x171;" horiz-adv-x="492" 
d="M469 444l-78 -444h-100l8 42c-26 -26 -71 -52 -129 -52c-84 0 -129 55 -129 130c0 11 1 23 3 35l50 289h100l-48 -277c-2 -10 -3 -20 -3 -29c0 -38 19 -62 67 -62c44 0 89 34 108 76l51 292h100zM261 513h-82l84 137h84zM395 513h-82l84 137h84z" />
    <glyph glyph-name="umacron" unicode="&#x16b;" horiz-adv-x="492" 
d="M469 444l-78 -444h-100l8 42c-26 -26 -71 -52 -129 -52c-84 0 -129 55 -129 130c0 11 1 23 3 35l50 289h100l-48 -277c-2 -10 -3 -20 -3 -29c0 -38 19 -62 67 -62c44 0 89 34 108 76l51 292h100zM184 524l14 79h225l-14 -79h-225z" />
    <glyph glyph-name="uogonek" unicode="&#x173;" horiz-adv-x="492" 
d="M291 0l8 42c-26 -26 -71 -52 -129 -52c-84 0 -129 55 -129 130c0 11 1 23 3 35l50 289h100l-48 -277c-2 -10 -3 -20 -3 -29c0 -38 19 -62 67 -62c44 0 89 34 108 76l51 292h100l-78 -444c-38 -50 -66 -76 -66 -102c0 -11 6 -18 17 -18c12 0 22 5 40 16l-11 -64
c-18 -12 -39 -22 -63 -22c-44 0 -63 25 -63 57c0 51 39 90 75 133h-29z" />
    <glyph glyph-name="uring" unicode="&#x16f;" horiz-adv-x="492" 
d="M304 538c23 0 44 17 44 44c0 23 -18 40 -40 40c-23 0 -44 -17 -44 -44c0 -23 18 -40 40 -40zM302 489c-51 0 -89 37 -89 87c0 51 42 95 97 95c51 0 89 -37 89 -87c0 -51 -42 -95 -97 -95zM469 444l-78 -444h-100l8 42c-26 -26 -71 -52 -129 -52c-84 0 -129 55 -129 130
c0 11 1 23 3 35l50 289h100l-48 -277c-2 -10 -3 -20 -3 -29c0 -38 19 -62 67 -62c44 0 89 34 108 76l51 292h100z" />
    <glyph glyph-name="utilde" unicode="&#x169;" horiz-adv-x="492" 
d="M469 444l-78 -444h-100l8 42c-26 -26 -71 -52 -129 -52c-84 0 -129 55 -129 130c0 11 1 23 3 35l50 289h100l-48 -277c-2 -10 -3 -20 -3 -29c0 -38 19 -62 67 -62c44 0 89 34 108 76l51 292h100zM391 641h64c-13 -78 -51 -131 -106 -131c-43 0 -59 52 -88 52
c-21 0 -34 -18 -40 -49h-64c14 78 51 131 106 131c44 0 60 -52 88 -52c20 0 34 18 40 49z" />
    <glyph glyph-name="wacute" unicode="&#x1e83;" horiz-adv-x="650" 
d="M413 513h-91l101 137h105zM406 444l12 -315l152 315h102l-225 -444h-100l-14 309l-144 -309h-100l-33 444h95l20 -315l148 315h87z" />
    <glyph glyph-name="wcircumflex" unicode="&#x175;" horiz-adv-x="650" 
d="M440 646l70 -140h-81l-42 79l-70 -79h-87l118 140h92zM406 444l12 -315l152 315h102l-225 -444h-100l-14 309l-144 -309h-100l-33 444h95l20 -315l148 315h87z" />
    <glyph glyph-name="wgrave" unicode="&#x1e81;" horiz-adv-x="650" 
d="M406 444l12 -315l152 315h102l-225 -444h-100l-14 309l-144 -309h-100l-33 444h95l20 -315l148 315h87zM413 513h-83l-67 137h97z" />
    <glyph glyph-name="wdieresis" unicode="&#x1e85;" horiz-adv-x="650" 
d="M250 572c0 34 26 59 59 59c32 0 58 -25 58 -59c0 -32 -26 -58 -58 -58c-33 0 -59 26 -59 58zM404 572c0 34 26 59 58 59s59 -25 59 -59c0 -32 -27 -58 -59 -58s-58 26 -58 58zM406 444l12 -315l152 315h102l-225 -444h-100l-14 309l-144 -309h-100l-33 444h95l20 -315
l148 315h87z" />
    <glyph glyph-name="ycircumflex" unicode="&#x177;" horiz-adv-x="476" 
d="M129 -170h-100l99 170l-70 444h98l49 -325l185 325h108zM343 646l70 -140h-81l-42 79l-70 -79h-87l118 140h92z" />
    <glyph glyph-name="ygrave" unicode="&#x1ef3;" horiz-adv-x="476" 
d="M129 -170h-100l99 170l-70 444h98l49 -325l185 325h108zM317 513h-83l-67 137h97z" />
    <glyph glyph-name="zacute" unicode="&#x17a;" horiz-adv-x="446" 
d="M309 513h-91l101 137h105zM378 83l-14 -83h-360l11 63l280 298h-218l15 83h346l-11 -63l-280 -298h231z" />
    <glyph glyph-name="zdotaccent" unicode="&#x17c;" horiz-adv-x="446" 
d="M378 83l-14 -83h-360l11 63l280 298h-218l15 83h346l-11 -63l-280 -298h231zM344 578c0 -34 -29 -61 -62 -61s-62 27 -62 61s29 61 62 61s62 -27 62 -61z" />
    <glyph glyph-name="caron.Slovak" 
d="M257 483h-82l76 167h82z" />
    <glyph glyph-name="cedilla.alt" 
d="M246 -190h-98l96 137h103z" />
    <glyph glyph-name="grave.cap" 
d="M336 671h-92l-75 117h110z" />
    <glyph glyph-name="acute.cap" 
d="M245 671h-102l97 117h120z" />
    <glyph glyph-name="circumflex.cap" 
d="M318 795l72 -124h-85l-41 60l-61 -60h-93l116 124h92z" />
    <glyph glyph-name="caron.cap" 
d="M182 671l-72 124h85l41 -60l61 60h93l-116 -124h-92z" />
    <glyph glyph-name="tilde.cap" 
d="M335 799h64c-13 -78 -51 -131 -106 -131c-43 0 -59 52 -88 52c-21 0 -34 -18 -40 -49h-64c14 78 51 131 106 131c44 0 60 -52 88 -52c20 0 34 18 40 49z" />
    <glyph glyph-name="macron.cap" 
d="M130 671l14 79h225l-14 -79h-225z" />
    <glyph glyph-name="breve.cap" 
d="M233 667c-71 0 -123 44 -109 124h73c-6 -35 13 -51 45 -51c33 0 58 16 64 51h73c-14 -80 -63 -124 -146 -124z" />
    <glyph glyph-name="dotaccent.cap" 
d="M312 728c0 -34 -29 -61 -62 -61s-62 27 -62 61s29 61 62 61s62 -27 62 -61z" />
    <glyph glyph-name="dieresis.cap" 
d="M114 728c0 34 26 59 59 59c32 0 58 -25 58 -59c0 -32 -26 -58 -58 -58c-33 0 -59 26 -59 58zM268 728c0 34 26 59 58 59s59 -25 59 -59c0 -32 -27 -58 -59 -58s-58 26 -58 58z" />
    <glyph glyph-name="ring.cap" 
d="M248 698c23 0 44 17 44 44c0 23 -18 40 -40 40c-23 0 -44 -17 -44 -44c0 -23 18 -40 40 -40zM246 649c-51 0 -89 37 -89 87c0 51 42 95 97 95c51 0 89 -37 89 -87c0 -51 -42 -95 -97 -95z" />
    <glyph glyph-name="hungarumlaut.cap" 
d="M182 671h-87l80 117h89zM323 671h-87l80 117h89z" />
    <glyph glyph-name="exclamdown.cap" horiz-adv-x="200" 
d="M174 421l-52 -421h-120l102 421h70zM224 552c0 -39 -30 -69 -68 -69s-68 30 -68 69s30 69 68 69s68 -30 68 -69z" />
    <glyph glyph-name="questiondown.cap" horiz-adv-x="441" 
d="M194 81c65 0 107 44 122 102h104c-32 -114 -116 -194 -233 -194c-110 0 -169 57 -169 152c0 81 64 140 128 193c50 42 60 65 63 86h98c-12 -55 -32 -88 -84 -136c-39 -37 -101 -79 -101 -138c0 -38 27 -65 72 -65zM341 551c0 -39 -30 -69 -68 -69s-68 30 -68 69
s30 69 68 69s68 -30 68 -69z" />
    <glyph glyph-name="guilsinglleft.cap" horiz-adv-x="236" 
d="M204 144h-94l-64 158l120 158h100l-124 -163z" />
    <glyph glyph-name="guilsinglright.cap" horiz-adv-x="236" 
d="M81 460h94l64 -158l-120 -158h-100l124 163z" />
    <glyph glyph-name="guillemotleft.cap" horiz-adv-x="397" 
d="M199 144h-89l-64 158l120 158h95l-124 -163zM364 144h-89l-64 158l120 158h95l-124 -163z" />
    <glyph glyph-name="guillemotright.cap" horiz-adv-x="397" 
d="M246 460h89l64 -158l-120 -158h-95l124 163zM81 460h89l64 -158l-120 -158h-95l124 163z" />
    <glyph glyph-name="slash.cap" horiz-adv-x="357" 
d="M-46 -64l376 734h110l-377 -734h-109z" />
    <glyph glyph-name="backslash.cap" horiz-adv-x="357" 
d="M197 670l119 -734h-95l-119 734h95z" />
    <glyph glyph-name="bar.cap" horiz-adv-x="232" 
d="M22 -64l129 734h96l-129 -734h-96z" />
    <glyph glyph-name="periodcentered.cap" horiz-adv-x="200" 
d="M45 303c0 39 30 69 68 69s68 -30 68 -69s-30 -69 -68 -69s-68 30 -68 69z" />
    <glyph glyph-name="bullet.cap" horiz-adv-x="352" 
d="M332 302c0 -84 -64 -143 -144 -143s-144 59 -144 143c0 85 64 144 144 144s144 -59 144 -144z" />
    <glyph glyph-name="hyphen.cap" horiz-adv-x="321" 
d="M47 257l16 91h241l-16 -91h-241z" />
    <glyph glyph-name="endash.cap" horiz-adv-x="475" 
d="M47 263l14 79h395l-14 -79h-395z" />
    <glyph glyph-name="emdash.cap" horiz-adv-x="846" 
d="M47 263l14 79h766l-14 -79h-766z" />
    <glyph glyph-name="parenleft.cap" horiz-adv-x="318" 
d="M35 239c0 205 127 374 340 431l-19 -108c-118 -29 -221 -162 -221 -323c0 -103 52 -175 130 -195l-19 -108c-127 41 -211 144 -211 303z" />
    <glyph glyph-name="parenright.cap" horiz-adv-x="318" 
d="M318 367c0 -205 -127 -374 -340 -431l19 108c118 29 221 162 221 323c0 103 -52 175 -130 195l19 108c127 -41 211 -144 211 -303z" />
    <glyph glyph-name="bracketleft.cap" horiz-adv-x="315" 
d="M226 580l-97 -554h133l-16 -90h-227l129 734h227l-16 -90h-133z" />
    <glyph glyph-name="bracketright.cap" horiz-adv-x="315" 
d="M127 26l97 554h-133l16 90h227l-129 -734h-227l16 90h133z" />
    <glyph glyph-name="braceleft.cap" horiz-adv-x="344" 
d="M198 220l-29 -165c-3 -19 5 -29 24 -29h98l-16 -90h-96c-81 0 -119 53 -106 130l28 162c3 19 -5 29 -24 29h-50l17 92h50c19 0 31 10 34 29l28 162c14 77 76 130 152 130h96l-16 -90h-98c-19 0 -31 -10 -34 -29l-29 -165c-8 -43 -33 -67 -62 -83c24 -16 41 -40 33 -83z
" />
    <glyph glyph-name="braceright.cap" horiz-adv-x="344" 
d="M184 386l29 165c3 19 -5 29 -24 29h-98l16 90h96c81 0 119 -53 106 -130l-28 -162c-3 -19 5 -29 24 -29h50l-17 -92h-50c-19 0 -31 -10 -34 -29l-28 -162c-14 -77 -76 -130 -152 -130h-96l16 90h98c19 0 31 10 34 29l29 165c8 43 33 67 62 83c-24 16 -41 40 -33 83z" />
    <glyph glyph-name="at.cap" horiz-adv-x="774" 
d="M595 474l-53 -231c-7 -31 0 -50 32 -50c63 0 114 71 114 186c0 133 -103 212 -246 212c-185 0 -320 -135 -320 -333c0 -191 159 -249 287 -249c97 0 171 21 236 49l-13 -75c-51 -25 -132 -45 -223 -45c-190 0 -367 96 -367 320c0 221 165 405 400 405
c196 0 323 -120 323 -284c0 -172 -108 -254 -211 -254c-47 0 -87 20 -106 54c-19 -33 -62 -54 -98 -54c-78 0 -127 59 -127 137c0 116 83 222 194 222c41 0 71 -18 83 -37l8 27h87zM454 252l27 111c-7 23 -30 41 -62 41c-62 0 -104 -66 -104 -133c0 -38 21 -65 61 -65
c35 0 61 22 78 46z" />
    <glyph glyph-name="Euro.lt" horiz-adv-x="520" 
d="M50 336l13 77h51c40 114 121 211 242 211c104 0 167 -63 179 -170h-90c-10 47 -42 79 -92 79c-69 0 -115 -53 -142 -120h181l-28 -77h-175c-4 -21 -6 -43 -7 -63h163l-30 -77h-131c10 -72 45 -115 109 -115c53 0 83 30 103 79h94c-38 -109 -110 -170 -207 -170
c-107 0 -181 78 -196 206h-62l14 77h47c1 20 4 42 8 63h-44z" />
    <glyph glyph-name="dollar.lt" horiz-adv-x="520" 
d="M14 184h98c9 -66 61 -94 121 -94c71 0 122 32 122 97c0 31 -18 52 -71 67l-94 27c-68 19 -121 59 -121 141c0 106 86 185 206 188l16 92h90l-18 -103c76 -23 117 -81 124 -157h-95c-6 47 -45 84 -111 84c-65 0 -115 -34 -115 -91c0 -32 18 -54 66 -68l96 -27
c76 -22 124 -66 124 -142c0 -112 -89 -183 -194 -193l-17 -97h-90l18 102c-88 18 -148 76 -155 174z" />
    <glyph glyph-name="cent.lt" horiz-adv-x="520" 
d="M48 199c0 126 82 249 211 263l16 90h90l-18 -97c67 -20 103 -73 105 -147h-98c-2 43 -29 69 -73 69c-89 0 -132 -91 -132 -178c0 -68 33 -112 91 -112c48 0 82 26 96 69h98c-20 -86 -81 -142 -166 -154l-16 -91h-90l16 96c-80 21 -130 92 -130 192z" />
    <glyph glyph-name="sterling.lt" horiz-adv-x="520" 
d="M257 426l-15 -83h139l-14 -81h-140l-15 -88c-6 -35 -18 -71 -37 -91h284l-14 -83h-438l14 83h57c17 23 28 47 36 91l15 88h-76l14 81h77l15 83c19 109 88 198 204 198c114 0 164 -68 164 -156h-95c0 47 -27 70 -69 70c-61 0 -95 -48 -106 -112z" />
    <glyph glyph-name="yen.lt" horiz-adv-x="520" 
d="M28 125l13 77h159l11 63h-159l14 77h116l-103 272h100l95 -267l187 267h106l-201 -272h117l-14 -77h-159l-11 -63h159l-13 -77h-160l-21 -125h-99l21 125h-158z" />
    <glyph glyph-name="florin.lt" horiz-adv-x="520" 
d="M143 267l15 84h85l38 126c29 96 99 147 183 147c34 0 55 -5 71 -12l-16 -88c-16 9 -33 14 -55 14c-40 0 -68 -19 -83 -68l-36 -119h88l-15 -84h-98l-90 -300c-29 -96 -89 -147 -173 -147c-34 0 -55 5 -71 12l16 88c16 -9 33 -14 55 -14c40 0 58 19 73 68l88 293h-75z" />
    <glyph glyph-name="zero.lt" horiz-adv-x="520" 
d="M233 84c114 0 172 162 172 302c0 84 -30 144 -98 144c-114 0 -172 -162 -172 -302c0 -84 30 -144 98 -144zM233 -10c-128 0 -199 95 -199 238c0 214 117 396 273 396c128 0 199 -95 199 -238c0 -213 -117 -396 -273 -396z" />
    <glyph glyph-name="one.lt" horiz-adv-x="520" 
d="M34 0l16 91h163l70 398l-178 -83l19 105l221 103h61l-92 -523h147l-16 -91h-411z" />
    <glyph glyph-name="two.lt" horiz-adv-x="520" 
d="M27 68l239 221c59 55 128 118 128 175c0 40 -27 68 -79 68c-62 0 -99 -44 -115 -102h-108c32 114 118 194 236 194c109 0 170 -56 170 -147c0 -97 -74 -155 -163 -239l-158 -147h264l-17 -91h-408z" />
    <glyph glyph-name="three.lt" horiz-adv-x="520" 
d="M221 270l15 87h39c62 0 122 32 122 105c0 42 -31 72 -83 72c-61 0 -104 -43 -119 -96h-108c29 107 119 186 237 186c114 0 172 -62 172 -152c0 -77 -51 -140 -114 -162c50 -25 72 -69 72 -120c0 -115 -99 -200 -221 -200c-130 0 -201 69 -201 174c0 6 1 20 1 20h100v-6
c0 -63 32 -99 100 -99c67 0 123 40 123 111c0 47 -38 80 -97 80h-38z" />
    <glyph glyph-name="four.lt" horiz-adv-x="520" 
d="M434 614l-286 -400h154l26 144h96l-26 -144h101l-15 -86h-101l-22 -128h-96l22 128h-276l13 72l297 414h113z" />
    <glyph glyph-name="five.lt" horiz-adv-x="520" 
d="M232 -10c-121 0 -196 73 -196 176c0 6 1 18 1 18h101v-7c0 -58 36 -97 98 -97c76 0 131 58 131 137c0 60 -37 99 -98 99c-45 0 -79 -22 -104 -48h-84l63 346h354l-16 -92h-269l-27 -150c22 15 59 33 107 33c107 0 172 -69 172 -179c0 -123 -90 -236 -233 -236z" />
    <glyph glyph-name="six.lt" horiz-adv-x="520" 
d="M511 461h-101c-6 39 -34 74 -84 74c-92 0 -156 -95 -176 -201h2c30 40 86 68 141 68c111 0 179 -85 179 -176c0 -120 -96 -236 -229 -236c-142 0 -198 109 -198 236c0 180 101 398 283 398c103 0 170 -60 183 -163zM146 180c0 -55 31 -101 100 -101s127 61 127 137
c0 55 -31 101 -100 101s-127 -61 -127 -137z" />
    <glyph glyph-name="seven.lt" horiz-adv-x="520" 
d="M500 535l-306 -535h-108l302 522h-314l16 92h424z" />
    <glyph glyph-name="eight.lt" horiz-adv-x="520" 
d="M136 164c0 -55 43 -90 104 -90c66 0 123 40 123 113c0 55 -43 90 -104 90c-66 0 -123 -40 -123 -113zM236 -10c-97 0 -202 54 -202 164c0 96 73 161 143 172c-42 20 -72 61 -72 119c0 109 93 179 204 179c102 0 186 -56 186 -153c0 -84 -58 -141 -121 -159
c50 -20 89 -65 89 -130c0 -130 -115 -192 -227 -192zM393 464c0 46 -38 77 -84 77c-57 0 -105 -37 -105 -102c0 -46 38 -77 84 -77c57 0 105 37 105 102z" />
    <glyph glyph-name="nine.lt" horiz-adv-x="520" 
d="M22 153h101c6 -39 34 -74 84 -74c92 0 156 95 176 201h-2c-30 -40 -86 -68 -141 -68c-111 0 -179 85 -179 176c0 120 96 236 229 236c142 0 198 -109 198 -236c0 -180 -101 -398 -283 -398c-103 0 -170 60 -183 163zM387 434c0 55 -31 101 -100 101s-127 -61 -127 -137
c0 -55 31 -101 100 -101s127 61 127 137z" />
    <glyph glyph-name="period.tab" horiz-adv-x="260" 
d="M34 62c0 39 30 69 68 69s68 -30 68 -69s-30 -69 -68 -69s-68 30 -68 69z" />
    <glyph glyph-name="comma.tab" horiz-adv-x="260" 
d="M11 -113l91 113c-27 7 -46 30 -46 62c0 39 30 67 68 67s68 -26 68 -72c0 -29 -18 -58 -36 -81l-73 -89h-72z" />
    <glyph glyph-name="colon.tab" horiz-adv-x="260" 
d="M34 62c0 39 30 69 68 69s68 -30 68 -69s-30 -69 -68 -69s-68 30 -68 69zM86 362c0 39 30 69 68 69s68 -30 68 -69s-30 -69 -68 -69s-68 30 -68 69z" />
    <glyph glyph-name="semicolon.tab" horiz-adv-x="260" 
d="M11 -113l91 113c-27 7 -46 30 -46 62c0 39 30 67 68 67s68 -26 68 -72c0 -29 -18 -58 -36 -81l-73 -89h-72zM86 362c0 39 30 69 68 69s68 -30 68 -69s-30 -69 -68 -69s-68 30 -68 69z" />
    <glyph glyph-name="space.tab" horiz-adv-x="260" 
 />
    <glyph glyph-name="uni2153" unicode="&#x2153;" horiz-adv-x="706" 
d="M664 614l-545 -614h-89l545 614h89zM494 139l11 61h19c27 0 51 12 51 42c0 16 -11 29 -31 29c-24 0 -40 -18 -46 -40h-84c16 63 66 109 137 109c66 0 102 -37 102 -89c0 -40 -26 -72 -53 -83c22 -14 33 -37 33 -63c0 -64 -55 -110 -125 -110c-74 0 -119 41 -119 102
c0 4 1 9 1 9h82v-3c0 -24 12 -39 38 -39c25 0 46 16 46 42c0 21 -15 33 -40 33h-22zM269 614l-59 -335h-77l42 241l-97 -44l15 82l125 56h51z" />
    <glyph glyph-name="uni2154" unicode="&#x2154;" horiz-adv-x="772" 
d="M730 614l-545 -614h-89l545 614h89zM69 339l136 118c21 18 51 44 51 68c0 17 -11 27 -29 27c-22 0 -40 -19 -45 -39h-84c17 63 66 111 137 111c65 0 103 -34 103 -87c0 -51 -38 -85 -82 -123l-71 -61h124l-12 -69h-237zM560 139l11 61h19c27 0 51 12 51 42
c0 16 -11 29 -31 29c-24 0 -40 -18 -46 -40h-84c16 63 66 109 137 109c66 0 102 -37 102 -89c0 -40 -26 -72 -53 -83c22 -14 33 -37 33 -63c0 -64 -55 -110 -125 -110c-74 0 -119 41 -119 102c0 4 1 9 1 9h82v-3c0 -24 12 -39 38 -39c25 0 46 16 46 42c0 21 -15 33 -40 33
h-22z" />
    <glyph glyph-name="uni215B" unicode="&#x215b;" horiz-adv-x="719" 
d="M664 614l-545 -614h-89l545 614h89zM269 614l-59 -335h-77l42 241l-97 -44l15 82l125 56h51zM475 96c0 -22 17 -37 42 -37c27 0 50 16 50 44c0 22 -17 36 -42 36c-27 0 -50 -15 -50 -43zM516 -4c-57 0 -120 28 -120 92c0 46 32 79 68 88c-21 12 -33 34 -33 62
c0 66 57 103 120 103c59 0 109 -32 109 -89c0 -40 -25 -72 -58 -85c24 -12 43 -35 43 -67c0 -70 -64 -104 -129 -104zM585 246c0 20 -16 33 -37 33c-24 0 -44 -15 -44 -41c0 -20 16 -33 36 -33c25 0 45 15 45 41z" />
    <glyph glyph-name="uni215C" unicode="&#x215c;" horiz-adv-x="763" 
d="M561 -4c-57 0 -120 28 -120 92c0 46 32 79 68 88c-21 12 -33 34 -33 62c0 66 57 103 120 103c59 0 109 -32 109 -89c0 -40 -25 -72 -58 -85c24 -12 43 -35 43 -67c0 -70 -64 -104 -129 -104zM708 614l-545 -614h-89l545 614h89zM172 418l11 61h19c27 0 51 12 51 42
c0 16 -11 29 -31 29c-24 0 -40 -18 -46 -40h-84c16 63 66 109 137 109c66 0 102 -37 102 -89c0 -40 -26 -72 -53 -83c22 -14 33 -37 33 -63c0 -64 -55 -110 -125 -110c-74 0 -119 41 -119 102c0 4 1 9 1 9h82v-3c0 -24 12 -39 38 -39c25 0 46 16 46 42c0 21 -15 33 -40 33
h-22zM520 96c0 -22 17 -37 42 -37c27 0 50 16 50 44c0 22 -17 36 -42 36c-27 0 -50 -15 -50 -43zM630 246c0 20 -16 33 -37 33c-24 0 -44 -15 -44 -41c0 -20 16 -33 36 -33c25 0 45 15 45 41z" />
    <glyph glyph-name="uni215D" unicode="&#x215d;" horiz-adv-x="762" 
d="M560 -4c-57 0 -120 28 -120 92c0 46 32 79 68 88c-21 12 -33 34 -33 62c0 66 57 103 120 103c59 0 109 -32 109 -89c0 -40 -25 -72 -58 -85c24 -12 43 -35 43 -67c0 -70 -64 -104 -129 -104zM707 614l-545 -614h-89l545 614h89zM187 274c-74 0 -117 43 -117 102
c0 4 1 9 1 9h80v-3c0 -23 15 -39 40 -39c29 0 49 22 49 52c0 24 -13 39 -39 39c-17 0 -30 -8 -41 -19h-68l35 199h204l-13 -70h-137l-9 -56c11 6 29 13 49 13c59 0 96 -39 96 -98c0 -73 -52 -129 -130 -129zM519 96c0 -22 17 -37 42 -37c27 0 50 16 50 44
c0 22 -17 36 -42 36c-27 0 -50 -15 -50 -43zM629 246c0 20 -16 33 -37 33c-24 0 -44 -15 -44 -41c0 -20 16 -33 36 -33c25 0 45 15 45 41z" />
    <glyph glyph-name="uni215E" unicode="&#x215e;" horiz-adv-x="703" 
d="M648 614l-545 -614h-89l545 614h89zM337 557l-153 -278h-83l146 263h-146l13 72h233zM460 96c0 -22 17 -37 42 -37c27 0 50 16 50 44c0 22 -17 36 -42 36c-27 0 -50 -15 -50 -43zM501 -4c-57 0 -120 28 -120 92c0 46 32 79 68 88c-21 12 -33 34 -33 62
c0 66 57 103 120 103c59 0 109 -32 109 -89c0 -40 -25 -72 -58 -85c24 -12 43 -35 43 -67c0 -70 -64 -104 -129 -104zM570 246c0 20 -16 33 -37 33c-24 0 -44 -15 -44 -41c0 -20 16 -33 36 -33c25 0 45 15 45 41z" />
    <glyph glyph-name="percent.lt" horiz-adv-x="520" 
d="M176 624c65 0 115 -51 115 -115c0 -67 -53 -128 -127 -128c-65 0 -115 51 -115 115c0 67 54 128 127 128zM167 447c30 0 58 24 58 59c0 29 -23 52 -52 52c-30 0 -58 -24 -58 -59c0 -29 23 -52 52 -52zM357 -10c-65 0 -115 51 -115 115c0 67 53 128 127 128
c65 0 115 -51 115 -115c0 -67 -54 -128 -127 -128zM366 167c-30 0 -58 -24 -58 -59c0 -29 23 -52 52 -52c30 0 58 24 58 59c0 29 -23 52 -52 52zM550 614l-481 -614h-86l481 614h86z" />
    <glyph glyph-name="perthousand.lt" horiz-adv-x="800" 
d="M192 624c65 0 115 -51 115 -115c0 -67 -53 -128 -127 -128c-65 0 -115 51 -115 115c0 67 54 128 127 128zM183 447c30 0 58 24 58 59c0 29 -23 52 -52 52c-30 0 -58 -24 -58 -59c0 -29 23 -52 52 -52zM373 -10c-65 0 -115 51 -115 115c0 67 53 128 127 128
c65 0 115 -51 115 -115c0 -67 -54 -128 -127 -128zM382 167c-30 0 -58 -24 -58 -59c0 -29 23 -52 52 -52c30 0 58 24 58 59c0 29 -23 52 -52 52zM566 614l-481 -614h-86l481 614h86zM644 -10c-65 0 -115 51 -115 115c0 67 53 128 127 128c65 0 115 -51 115 -115
c0 -67 -54 -128 -127 -128zM653 167c-30 0 -58 -24 -58 -59c0 -29 23 -52 52 -52c30 0 58 24 58 59c0 29 -23 52 -52 52z" />
    <glyph glyph-name="plus.lt" horiz-adv-x="520" 
d="M267 507h80l-30 -168h168l-14 -80h-168l-29 -167h-80l29 167h-168l14 80h168z" />
    <glyph glyph-name="minus.lt" horiz-adv-x="520" 
d="M55 259l14 80h416l-14 -80h-416z" />
    <glyph glyph-name="multiply.lt" horiz-adv-x="520" 
d="M218 298l-102 121l61 52l99 -122l146 124l45 -55l-145 -123l101 -121l-61 -53l-101 122l-144 -123l-45 56z" />
    <glyph glyph-name="divide.lt" horiz-adv-x="520" 
d="M55 259l14 80h416l-14 -80h-416zM238 467c0 35 28 64 63 64s64 -29 64 -64s-29 -63 -64 -63s-63 28 -63 63zM178 131c0 35 28 63 63 63s64 -28 64 -63s-29 -64 -64 -64s-63 29 -63 64z" />
    <glyph glyph-name="equal.lt" horiz-adv-x="520" 
d="M43 188l13 74h415l-13 -74h-415zM69 336l13 76h415l-13 -76h-415z" />
    <glyph glyph-name="less.lt" horiz-adv-x="520" 
d="M89 244l18 107l343 152l-16 -95l-263 -114l223 -113l-16 -90z" />
    <glyph glyph-name="greater.lt" horiz-adv-x="520" 
d="M450 350l-18 -107l-343 -152l16 95l263 114l-223 113l16 90z" />
    <glyph glyph-name="plusminus.lt" horiz-adv-x="520" 
d="M284 539h79l-24 -132h164l-14 -79h-164l-23 -132h-79l23 132h-164l14 79h164zM37 73l14 79h407l-14 -79h-407z" />
    <glyph glyph-name="lessequal.lt" horiz-adv-x="520" 
d="M112 307l17 101l340 126l-17 -91l-250 -88l219 -89l-14 -84zM70 73l14 79h317l-14 -79h-317z" />
    <glyph glyph-name="greaterequal.lt" horiz-adv-x="520" 
d="M413 152l-14 -79h-317l14 79h317zM458 409l-17 -101l-340 -126l17 91l250 88l-219 89l14 84z" />
    <glyph glyph-name="notequal.lt" horiz-adv-x="520" 
d="M69 337l13 73h247l84 96h72l-84 -96h96l-13 -73h-146l-66 -76h199l-13 -73h-250l-82 -95h-72l82 95h-93l13 73h144l66 76h-197z" />
    <glyph glyph-name="approxequal.lt" horiz-adv-x="520" 
d="M65 312l13 76c44 26 83 37 118 37c70 0 112 -36 182 -36c35 0 75 11 122 38l-14 -76c-46 -27 -86 -38 -121 -38c-70 0 -112 37 -182 37c-35 0 -74 -11 -118 -38zM40 174l13 75c45 27 84 38 119 38c70 0 112 -37 182 -37c35 0 74 10 121 38l-13 -76
c-47 -27 -87 -37 -122 -37c-70 0 -111 36 -181 36c-35 0 -74 -11 -119 -37z" />
    </font>
</defs>
</svg>
